<svg xmlns="http://www.w3.org/2000/svg" width="224.663" height="189.223" viewBox="0 0 224.663 189.223">
  <g id="barreira" transform="translate(0.5 -7.025)" opacity="0.5">
    <path id="Caminho_140" data-name="Caminho 140" d="M215.182,20.305V84.247a7.442,7.442,0,0,1-3.473,6.287,7.339,7.339,0,0,1-3.96,1.145H10.433A7.442,7.442,0,0,1,3,84.247V20.305a7.442,7.442,0,0,1,7.433-7.4H207.749a7.411,7.411,0,0,1,7.433,7.4Z" transform="translate(7.421 12.472)" fill="#9297ab"/>
    <path id="Caminho_141" data-name="Caminho 141" d="M215.182,20.305V84.241a7.439,7.439,0,0,1-3.464,6.272,7.192,7.192,0,0,1-3.963,1.155H204.51v-62a7.4,7.4,0,0,0-7.426-7.4H3V20.305a7.376,7.376,0,0,1,7.426-7.4H207.756a7.4,7.4,0,0,1,7.426,7.4Z" transform="translate(7.421 12.478)" fill="#84879c"/>
    <path id="Caminho_142" data-name="Caminho 142" d="M32.571,12.127v12.2H9.3v-12.2a4.6,4.6,0,0,1,4.6-4.6H27.969A4.6,4.6,0,0,1,32.571,12.127Z" transform="translate(20.779 1.06)" fill="#e1e6e9"/>
    <path id="Caminho_143" data-name="Caminho 143" d="M9.3,38.152H32.571v85.934a4.6,4.6,0,0,1-4.6,4.6H13.9a4.6,4.6,0,0,1-4.6-4.6Z" transform="translate(20.779 65.999)" fill="#e1e6e9"/>
    <path id="Caminho_144" data-name="Caminho 144" d="M80.513,12.127v12.2H57.242v-12.2a4.6,4.6,0,0,1,4.6-4.6H75.911A4.6,4.6,0,0,1,80.513,12.127Z" transform="translate(122.432 1.06)" fill="#e1e6e9"/>
    <path id="Caminho_145" data-name="Caminho 145" d="M57.242,38.152H80.513v85.934a4.6,4.6,0,0,1-4.6,4.6H61.844a4.6,4.6,0,0,1-4.6-4.6Z" transform="translate(122.432 65.999)" fill="#e1e6e9"/>
    <path id="Caminho_146" data-name="Caminho 146" d="M25.729,12.138v12.2H17.148v-12.2A4.609,4.609,0,0,0,12.53,7.52h8.581a4.609,4.609,0,0,1,4.618,4.618Z" transform="translate(27.628 1.05)" fill="#d5d6db"/>
    <path id="Caminho_147" data-name="Caminho 147" d="M25.729,38.15v85.934a4.609,4.609,0,0,1-4.618,4.618H12.53a4.609,4.609,0,0,0,4.618-4.618V38.15Z" transform="translate(27.628 65.995)" fill="#d5d6db"/>
    <path id="Caminho_148" data-name="Caminho 148" d="M73.669,12.138v12.2H65.088v-12.2A4.609,4.609,0,0,0,60.47,7.52h8.581a4.609,4.609,0,0,1,4.618,4.618Z" transform="translate(129.276 1.05)" fill="#d5d6db"/>
    <path id="Caminho_149" data-name="Caminho 149" d="M73.669,38.15v85.934a4.609,4.609,0,0,1-4.618,4.618H60.47a4.609,4.609,0,0,0,4.618-4.618V38.15Z" transform="translate(129.276 65.995)" fill="#d5d6db"/>
    <path id="Caminho_150" data-name="Caminho 150" d="M61.664,91.68H39.26L4.113,14.052a7.339,7.339,0,0,1,3.96-1.145H26Z" transform="translate(9.781 12.472)" fill="#287eb6"/>
    <path id="Caminho_151" data-name="Caminho 151" d="M77.824,91.68H55.454L19.786,12.907H42.152Z" transform="translate(43.013 12.472)" fill="#287eb6"/>
    <path id="Caminho_152" data-name="Caminho 152" d="M93.652,91.68H71.286L35.614,12.907h22.37Z" transform="translate(76.573 12.472)" fill="#287eb6"/>
    <path id="Caminho_153" data-name="Caminho 153" d="M108.994,90.534a7.339,7.339,0,0,1-3.96,1.145H87.111L51.443,12.907h22.4Z" transform="translate(110.136 12.472)" fill="#287eb6"/>
    <path id="Caminho_154" data-name="Caminho 154" d="M30.258,22.271H7.854L4.11,14.033A7.436,7.436,0,0,1,8.073,12.91H26.015Z" transform="translate(9.775 12.478)" fill="#09639e"/>
    <path id="Caminho_155" data-name="Caminho 155" d="M46.375,22.271H24.034L19.79,12.91H42.132Z" transform="translate(43.021 12.478)" fill="#09639e"/>
    <path id="Caminho_156" data-name="Caminho 156" d="M62.226,22.271H39.854L35.61,12.91H57.983Z" transform="translate(76.565 12.478)" fill="#09639e"/>
    <path id="Caminho_157" data-name="Caminho 157" d="M73.844,12.91l4.244,9.361h-22.4L51.44,12.91Z" transform="translate(110.13 12.478)" fill="#09639e"/>
    <g id="Grupo_80" data-name="Grupo 80" transform="translate(-0.5 7.025)">
      <path id="Caminho_158" data-name="Caminho 158" d="M17.854,59.075A18.376,18.376,0,0,1-.5,40.721V35a1.56,1.56,0,1,1,3.12,0v5.726A15.252,15.252,0,0,0,17.854,55.954a1.56,1.56,0,0,1,0,3.12Z" transform="translate(0.5 48.973)" fill="#323c6b"/>
      <path id="Caminho_159" data-name="Caminho 159" d="M1.06,35.2A1.56,1.56,0,0,1-.5,33.641V32.015a1.56,1.56,0,1,1,3.12,0v1.626A1.56,1.56,0,0,1,1.06,35.2Z" transform="translate(0.5 42.654)" fill="#323c6b"/>
      <path id="Caminho_160" data-name="Caminho 160" d="M36.017,12.527H32.31a1.56,1.56,0,0,1,0-3.12h3.707a1.56,1.56,0,0,1,0,3.12Z" transform="translate(66.76 -1.974)" fill="#323c6b"/>
      <path id="Caminho_161" data-name="Caminho 161" d="M71,12.527h-35.1a1.56,1.56,0,0,1,0-3.12H71a1.56,1.56,0,1,1,0,3.12Z" transform="translate(74.357 -1.974)" fill="#323c6b"/>
      <path id="Caminho_162" data-name="Caminho 162" d="M33.632,26.939H10.36a1.56,1.56,0,0,1-1.56-1.56V13.188a6.169,6.169,0,0,1,6.163-6.163H29.029a6.169,6.169,0,0,1,6.163,6.163v12.2a1.56,1.56,0,0,1-1.56,1.548ZM11.92,23.819H32.071V13.188a3.042,3.042,0,0,0-3.042-3.042H14.963a3.042,3.042,0,0,0-3.042,3.042Z" transform="translate(20.219 -7.025)" fill="#323c6b"/>
      <path id="Caminho_163" data-name="Caminho 163" d="M29.029,131.308H14.963A6.169,6.169,0,0,1,8.8,125.146V39.212a1.56,1.56,0,0,1,1.56-1.56H33.632a1.56,1.56,0,0,1,1.56,1.56v85.934a6.169,6.169,0,0,1-6.163,6.163ZM11.92,40.772v84.374a3.042,3.042,0,0,0,3.042,3.042H29.029a3.042,3.042,0,0,0,3.042-3.042V40.772Z" transform="translate(20.219 57.914)" fill="#323c6b"/>
      <path id="Caminho_164" data-name="Caminho 164" d="M81.574,26.939H58.3a1.56,1.56,0,0,1-1.56-1.56V13.188A6.169,6.169,0,0,1,62.9,7.025H76.971a6.169,6.169,0,0,1,6.163,6.163v12.2a1.56,1.56,0,0,1-1.56,1.548Zm-21.711-3.12H80.013V13.188a3.042,3.042,0,0,0-3.042-3.042H62.9a3.042,3.042,0,0,0-3.042,3.042Z" transform="translate(121.871 -7.025)" fill="#323c6b"/>
      <path id="Caminho_165" data-name="Caminho 165" d="M76.971,131.308H62.9a6.169,6.169,0,0,1-6.163-6.163V39.212a1.56,1.56,0,0,1,1.56-1.56H81.574a1.56,1.56,0,0,1,1.56,1.56v85.934a6.169,6.169,0,0,1-6.163,6.163ZM59.862,40.772v84.374a3.042,3.042,0,0,0,3.042,3.042H76.971a3.042,3.042,0,0,0,3.042-3.042V40.772Z" transform="translate(121.871 57.914)" fill="#323c6b"/>
      <path id="Caminho_166" data-name="Caminho 166" d="M62.726,94.3h-22.4a1.56,1.56,0,0,1-1.423-.917L3.752,15.755a1.56,1.56,0,0,1,.587-1.96,8.912,8.912,0,0,1,4.8-1.389H27.058a1.56,1.56,0,0,1,1.423.917L64.146,92.1a1.56,1.56,0,0,1-1.423,2.2Zm-21.4-3.12H60.308L26.037,15.527H9.131a5.832,5.832,0,0,0-1.913.312Z" transform="translate(9.222 4.387)" fill="#323c6b"/>
      <path id="Caminho_167" data-name="Caminho 167" d="M78.885,94.3H56.515a1.56,1.56,0,0,1-1.423-.917L19.424,14.61a1.56,1.56,0,0,1,1.423-2.2H43.213a1.56,1.56,0,0,1,1.423.917L80.3,92.1a1.56,1.56,0,0,1-1.423,2.2ZM57.523,91.18h18.94L42.209,15.527H23.265Z" transform="translate(42.452 4.387)" fill="#323c6b"/>
      <path id="Caminho_168" data-name="Caminho 168" d="M94.711,94.3H72.344a1.56,1.56,0,0,1-1.423-.917L35.253,14.61a1.56,1.56,0,0,1,1.423-2.2H59.042a1.56,1.56,0,0,1,1.423.917L96.134,92.1a1.56,1.56,0,0,1-1.423,2.2ZM73.349,91.18H92.293L58.035,15.527H39.094Z" transform="translate(76.014 4.387)" fill="#323c6b"/>
      <path id="Caminho_169" data-name="Caminho 169" d="M106.1,94.3H88.176a1.56,1.56,0,0,1-1.423-.917L51.081,14.61a1.56,1.56,0,0,1,1.423-2.2h22.4a1.56,1.56,0,0,1,1.423.917l35.144,77.627a1.56,1.56,0,0,1-.583,1.96A8.918,8.918,0,0,1,106.1,94.3ZM89.18,91.18H106.1a5.866,5.866,0,0,0,1.913-.312L73.9,15.527H54.922Z" transform="translate(109.575 4.387)" fill="#323c6b"/>
      <path id="Caminho_170" data-name="Caminho 170" d="M208.809,94.3H11.493A9,9,0,0,1,2.5,85.307V21.365a9,9,0,0,1,8.993-8.958H208.809a8.987,8.987,0,0,1,8.993,8.958V85.307A9.005,9.005,0,0,1,208.809,94.3ZM11.493,15.527A5.879,5.879,0,0,0,5.62,21.365V85.307a5.879,5.879,0,0,0,5.872,5.872H208.809a5.794,5.794,0,0,0,3.12-.9,5.857,5.857,0,0,0,2.752-4.968V21.365a5.863,5.863,0,0,0-5.872-5.838Z" transform="translate(6.861 4.387)" fill="#323c6b"/>
    </g>
    <path id="Caminho_171" data-name="Caminho 171" d="M27.49,37.992a2.028,2.028,0,0,1-1.844-1.183l-1.17-2.552a2.029,2.029,0,1,1,3.688-1.691l1.17,2.552a2.031,2.031,0,0,1-1.841,2.874Z" transform="translate(52.564 51.644)" fill="#fff"/>
    <path id="Caminho_172" data-name="Caminho 172" d="M33.991,52.187A2.028,2.028,0,0,1,32.147,51L19.335,23.041a2.029,2.029,0,0,1,3.688-1.691L35.844,49.311A2.031,2.031,0,0,1,34,52.184Z" transform="translate(41.664 27.862)" fill="#fff"/>
  </g>
</svg>
