<svg xmlns="http://www.w3.org/2000/svg" width="97.9" height="97.84" viewBox="0 0 97.9 97.84">
  <g id="demoman-blue" transform="translate(-38.53 -125.52)">
    <path id="Caminho_122" data-name="Caminho 122" d="M87.5,125.52a48.92,48.92,0,1,1-48.97,48.92A48.693,48.693,0,0,1,87.5,125.52Zm.05,2.64c-25.58-.52-46.53,20.98-46.57,46.1a46.455,46.455,0,1,0,92.91.23C133.96,148.73,112.85,127.83,87.55,128.16Z" fill="#4695c8"/>
    <path id="Caminho_123" data-name="Caminho 123" d="M69.01,157.24a14.181,14.181,0,0,1,3.96-.48c6.66.47,12.87,2.59,18.89,5.33a62.689,62.689,0,0,1,14.47,8.83c2.11,1.76,4.2,3.58,5.25,6.27.14.36.26.5-.23.66-3.12,1.05-4.77,3.44-5.74,6.41a10.684,10.684,0,0,0-.52,4.01,2.905,2.905,0,0,0,1.27,2.56c.39.24.51.49.15.84-.83.81-1.65,1.63-2.5,2.42-.38.35-.71.32-1.07-.17-2.91-4-7-6.63-11.12-9.12a86.868,86.868,0,0,0-19.27-8.72,33.09,33.09,0,0,0-10.2-1.83c-.47,0-.93,0-.86-.66.13-1.11.28-2.21.42-3.31.05-.35.11-.69.58-.37,1.79,1.21,3.27.32,4.49-.89a12.958,12.958,0,0,0,3.78-8.2A3.453,3.453,0,0,0,69.01,157.24Zm27.24,14.21c.2-5.07-4.1-8.34-8.41-8.45a8.46,8.46,0,1,0,.14,16.92A8.235,8.235,0,0,0,96.25,171.45Z" fill="#4695c8"/>
    <path id="Caminho_124" data-name="Caminho 124" d="M91.72,193.18a6.583,6.583,0,0,0-5.49,2.19,3.156,3.156,0,0,0-.72,3.72c.4.83.06,1.14-.76,1.02-.86-.13-1.72.01-1.65-1.52.07-1.47-1.23-2.56-2.36-3.45a15.817,15.817,0,0,0-7.96-3.34,3.849,3.849,0,0,0-3.14.84c-.56.51-.64-.12-.88-.35-.35-.34-.28-.54.14-.81,3.26-2.09,3.81-5.39,1.4-8.47a6.894,6.894,0,0,0-3.08-2.4,3.72,3.72,0,0,0-3.85.42c-.76.6-1.03.21-1.16-.51a18.225,18.225,0,0,0-.39-2.23c-.26-.86.14-.93.82-.94a30.311,30.311,0,0,1,8.46,1.38,72.709,72.709,0,0,1,24.59,12.3,23.347,23.347,0,0,1,4.47,4.3c.49.64.57,1.12-.23,1.53-.74.39-1.47.81-2.21,1.19-.52.27-.93.2-.74-.5.45-1.71-.64-2.6-1.8-3.41A5.018,5.018,0,0,0,91.72,193.18Z" fill="#4695c8"/>
    <path id="Caminho_125" data-name="Caminho 125" d="M72.45,153.46a21.549,21.549,0,0,1,5.79-3.16c.39-.15.61-.02.76.46.91,2.9,2.55,4.01,5.7,3.78a8.21,8.21,0,0,0,4.2-1.25,3.536,3.536,0,0,0,1.85-3.5c-.06-.45-.19-.94.69-.8a24.273,24.273,0,0,1,14.59,7.8c.26.28.49.6.02.88-2.21,1.34-2.2,3.39-1.59,5.48a5.732,5.732,0,0,0,3.05,3.81,3.4,3.4,0,0,0,3.62-.06c.32-.21.7-.48.85.07a20.874,20.874,0,0,1,1.03,5.87A73.733,73.733,0,0,0,72.45,153.46Z" fill="#4695c8"/>
    <path id="Caminho_126" data-name="Caminho 126" d="M65.25,157.45c.52,0,1.04-.03,1.56.01a3.044,3.044,0,0,1,2.82,2.99,9.956,9.956,0,0,1-4,8.28c-1.44,1.12-2.43.8-3.49-.65-2.19-2.98-4.45-5.91-6.68-8.86-.88-1.17-.89-1.16.49-1.4a4.179,4.179,0,0,1,.71-.09C59.52,157.67,62.39,157.75,65.25,157.45Z" fill="#4695c8"/>
    <path id="Caminho_127" data-name="Caminho 127" d="M70.35,194.35c0-1.43.27-1.77,2.63-1.64a11.568,11.568,0,0,1,8.48,4.31c.98,1.17.82,2.04-.33,2.96l-9.33,7.44c-.22.17-.41.45-.71.36-.35-.1-.27-.45-.28-.71C70.67,203.12,70.53,199.18,70.35,194.35Z" fill="#4695c8"/>
    <path id="Caminho_128" data-name="Caminho 128" d="M106.1,187.44a10.652,10.652,0,0,1,3.75-7.71,2.579,2.579,0,0,1,4.03.49q3.195,4.17,6.36,8.35c.18.24.5.51.34.83-.17.35-.57.16-.87.19-4,.38-8.03.03-12.02.57-.96.13-1.33-.85-1.58-1.66A4.159,4.159,0,0,1,106.1,187.44Z" fill="#4695c8"/>
    <path id="Caminho_129" data-name="Caminho 129" d="M66.21,190.56c-2.09-.3-4.96-.74-7.83-1.13-.79-.11-.89-.36-.36-.93q2.19-2.37,4.38-4.75a7.676,7.676,0,0,0,.69-.82,3.1,3.1,0,0,1,4.26-1.16c2.13.94,3.8,4.1,3.3,6.24C70.19,190.04,69.37,190.61,66.21,190.56Z" fill="#4695c8"/>
    <path id="Caminho_130" data-name="Caminho 130" d="M96.07,197.69c-.79,2.19-.76,4.53-1.16,6.79-.11.67-.23,1.33-.32,2-.08.58-.28.73-.74.29-2.18-2.11-4.43-4.15-6.5-6.36-1.62-1.72-1.43-3.28.39-4.83,2.55-2.18,6.43-1.49,7.82.54A2.5,2.5,0,0,1,96.07,197.69Z" fill="#4695c8"/>
    <path id="Caminho_131" data-name="Caminho 131" d="M84.36,153.58a5.467,5.467,0,0,1-2.04-.34c-1.99-.58-2.68-1.57-2.11-3.54.71-2.45,1.03-4.98,1.65-7.44.09-.37.04-.9.47-1.02.37-.1.59.34.82.6,1.98,2.24,4.23,4.23,5.97,6.68,1.02,1.44.87,2.67-.53,3.71A8.377,8.377,0,0,1,84.36,153.58Z" fill="#4695c8"/>
    <path id="Caminho_132" data-name="Caminho 132" d="M109.4,166.54c-1.92-.01-4.09-2.3-4.28-4.45a8.194,8.194,0,0,1-.01-1.31,2.371,2.371,0,0,1,2.88-2.39q3.84.5,7.67,1c1.31.17,1.34.29.54,1.33-1.56,2.04-3.67,3.51-5.45,5.33A2.2,2.2,0,0,1,109.4,166.54Z" fill="#4695c8"/>
    <path id="Caminho_133" data-name="Caminho 133" d="M103.03,152.69a30.087,30.087,0,0,0-9.05-4.27c-.61-.18-.78-.38-.15-.79,2.53-1.68,5.04-3.37,7.57-5.04,1.06-.7.96.38,1,.79q.36,3.09.53,6.19C102.98,150.53,103.42,151.5,103.03,152.69Z" fill="#4695c8"/>
    <path id="Caminho_134" data-name="Caminho 134" d="M87.94,164.61c3.91-.35,6.96,3.64,6.87,6.92a6.956,6.956,0,0,1-13.91-.04A6.771,6.771,0,0,1,87.94,164.61Z" fill="#4695c8"/>
  </g>
</svg>
