<svg xmlns="http://www.w3.org/2000/svg" width="97.9" height="97.87" viewBox="0 0 97.9 97.87">
  <g id="engieneer-blue" transform="translate(-38.53 -115.46)">
    <path id="Caminho_120" data-name="Caminho 120" d="M87.5,115.46a48.935,48.935,0,1,1-48.97,48.96A48.784,48.784,0,0,1,87.5,115.46ZM41.02,164.42a46.43,46.43,0,1,0,47.76-46.39C62.13,117.27,40.72,139.14,41.02,164.42Z" fill="#4695c8"/>
    <path id="Caminho_121" data-name="Caminho 121" d="M53.69,137.53c1.16,1.35,2.25,2.6,3.32,3.87,1.87,2.23,3.74,4.46,5.58,6.71.47.58.88.39,1.32.02l6.39-5.4c1.92-1.62,3.82-3.25,5.76-4.84,1.31-1.07,1.36-1.13.28-2.42q-3.72-4.44-7.46-8.88c-.2-.24-.55-.44-.4-.8.15-.38.56-.24.86-.23,7.8.15,14.54,5.18,16.11,13.24a15.6,15.6,0,0,1-.56,8.48,1.787,1.787,0,0,0,.43,1.96q9.075,10.74,18.14,21.49a3.2,3.2,0,0,0,2.93,1.38,13.861,13.861,0,0,1,10.66,3.7,14.385,14.385,0,0,1,4.64,8.69,14.977,14.977,0,0,1-.48,6.25c-.23.9-.58.85-1.09.25-2.28-2.71-4.58-5.41-6.83-8.16-.52-.64-.89-.91-1.63-.28-2.96,2.55-5.96,5.07-8.96,7.57-.45.37-.36.57-.04.94q3.585,4.17,7.15,8.36c.28.33.5.7.8,1.13a13.012,13.012,0,0,1-7.27-.09,14.5,14.5,0,0,1-10.47-15.51,1.928,1.928,0,0,1,.11-.59c.82-1.83.13-3.18-1.12-4.61-4.35-4.99-8.56-10.09-12.83-15.15-1.75-2.07-3.51-4.13-5.25-6.21-.37-.44-.73-.42-1.26-.33a16.029,16.029,0,0,1-14.9-4.66c-4.2-4.24-5.32-9.47-4.25-15.24A3.654,3.654,0,0,1,53.69,137.53Z" fill="#4695c8"/>
  </g>
</svg>
