<svg xmlns="http://www.w3.org/2000/svg" width="97.51" height="97.64" viewBox="0 0 97.51 97.64">
  <g id="heavy" transform="translate(-38.75 -122.67)">
    <path id="Caminho_113" data-name="Caminho 113" d="M87.43,220.31a48.82,48.82,0,1,1,48.83-48.66A48.69,48.69,0,0,1,87.43,220.31Zm-.07-95.04c-25.04-.6-45.59,20.39-46.3,44.69a46.424,46.424,0,1,0,92.8,2.97C134.62,145.51,111.96,124.48,87.36,125.27Z" fill="#b2b2b2"/>
    <path id="Caminho_114" data-name="Caminho 114" d="M64.78,182.95c.36-.34.63-.58.87-.83,2.7-2.89,5.41-5.77,8.09-8.67,2.9-3.13,5.74-6.31,8.77-9.33.27-.27.39-.9,1-.42.58.46.24.78-.11,1.16q-3.825,4.125-7.64,8.27-4.755,5.145-9.54,10.26c-.53.56-.55.92-.06,1.5,1.07,1.29,2.07,2.64,3.1,3.96a8.892,8.892,0,0,0,3.63,3.01c1.76.72,1.68.78,2.97-.62q8.22-8.955,16.5-17.85c.21-.23.4-.87.9-.35a.753.753,0,0,1-.04,1.16c-1.38,1.5-2.71,3.04-4.09,4.54q-6.345,6.87-12.71,13.7c-.53.57-.54.85.2,1.2q4.65,2.205,9.25,4.51a.946.946,0,0,0,1.33-.24c1.87-2.02,3.77-4.02,5.66-6.02q3.5-3.705,7.01-7.39c.29-.3.57-.77,1.06-.24.42.45.16.79-.18,1.12-.06.05-.11.11-.17.17-4,4.24-7.99,8.49-12.02,12.7-.63.66-.64.91.25,1.3,1.97.87,3.91,1.82,5.8,2.84a1.31,1.31,0,0,0,1.66-.16q10.215-7.815,20.47-15.59a2.206,2.206,0,0,0,.94-1.57c.26-1.65.54-3.3.93-4.92a3.193,3.193,0,0,0-.68-3.19,15.179,15.179,0,0,1-1.88-2.63c-.76-1.32-1.68-2.16-3.33-1.8-.76.17-.84-.2-.64-.89.41-1.37.64-2.8,1.08-4.16a2.6,2.6,0,0,0-.54-3.01,16.388,16.388,0,0,1-1.99-2.54,3.36,3.36,0,0,0-3.21-1.87c-.65.05-1.33-.32-1.99-.32-1.37.01-1.34-.83-1.14-1.74a20.5,20.5,0,0,0,.22-3.58c.04-.82-3.54-4.55-4.37-4.63-.99-.1-1.98-.21-2.97-.23s-1.76-.29-2-1.32c-.77-3.4-3.13-5.26-6.13-6.55a1.963,1.963,0,0,1-.32-.17,2.322,2.322,0,0,0-1.94-.28c-2.21.48-4.44.89-6.65,1.38a3.81,3.81,0,0,0-2.47,1.04c-1.43,1.72-2.9,3.4-4.39,5.05a23.79,23.79,0,0,1-5.06,4.69c-4.24,2.61-8.38,5.41-12.57,8.1a3.431,3.431,0,0,0-1.43,1.69c-.82,2.04-1.63,4.08-2.56,6.06a5.2,5.2,0,0,0-.41,4.22,17.3,17.3,0,0,1,.74,3.5,2.324,2.324,0,0,0,1.6,2.11,9.053,9.053,0,0,1,4.81,3.71c1.47,2.43,1.56,2.34,4.12,1.08.8-.39.93-.77.55-1.57-1.14-2.42-2.21-4.87-3.3-7.32a1.376,1.376,0,0,1-.13-1.34c2.38-4.84,4.7-9.7,7.08-14.54a3.959,3.959,0,0,1,2.04-1.9,2.657,2.657,0,0,1-.47,1.32q-3.5,7.23-7,14.44c-.22.46-.55.93-.31,1.47C62.21,177.26,63.48,180.06,64.78,182.95Zm47.21-36.29c.07.03.14.05.2.08,2.38-1.36,4.77-2.72,7.15-4.08.38-.22,1.03-.36.38-1-.88-.87-1.75-1.74-2.62-2.63-.34-.35-.61-.31-.84.1Q114.115,142.895,111.99,146.66Zm-53,56.94a2.324,2.324,0,0,1,.15-.41c1.28-2.26,2.56-4.51,3.83-6.77a.488.488,0,0,0,.01-.44c-.13-.22-.35-.12-.52-.02-2.22,1.26-4.43,2.52-6.65,3.78-.36.21-.44.44-.13.75l2.79,2.79A4.7,4.7,0,0,0,58.99,203.6Zm53.19-8.05c-.05.07-.11.14-.16.21,1.1,1.93,2.2,3.88,3.32,5.8,1.2,2.06,1.22,2.05,2.93.36,1.83-1.8,1.84-1.82-.34-3.09C116.03,197.72,114.1,196.64,112.18,195.55ZM63.09,146.81l.16-.16c-1.39-2.43-2.78-4.87-4.16-7.3-.26-.46-.53-.54-.92-.15-.84.85-1.69,1.69-2.53,2.53-.3.31-.4.59.06.85Q59.4,144.7,63.09,146.81Z" fill="#b2b2b2"/>
    <path id="Caminho_115" data-name="Caminho 115" d="M64.78,182.95c-1.3-2.9-2.57-5.69-3.82-8.49-.24-.54.08-1.01.31-1.47q3.495-7.215,7-14.44a2.565,2.565,0,0,0,.47-1.32,3.959,3.959,0,0,0-2.04,1.9c-2.38,4.84-4.7,9.7-7.08,14.54a1.373,1.373,0,0,0,.13,1.34c1.09,2.44,2.16,4.9,3.3,7.32.37.79.25,1.18-.55,1.57-2.56,1.26-2.65,1.35-4.12-1.08a9.053,9.053,0,0,0-4.81-3.71,2.31,2.31,0,0,1-1.6-2.11,16.646,16.646,0,0,0-.74-3.5,5.23,5.23,0,0,1,.41-4.22c.93-1.98,1.75-4.03,2.56-6.06a3.475,3.475,0,0,1,1.43-1.69c4.2-2.69,8.33-5.49,12.57-8.1a24.278,24.278,0,0,0,5.06-4.69c1.5-1.66,2.97-3.34,4.39-5.05a3.861,3.861,0,0,1,2.47-1.04c2.21-.49,4.44-.9,6.65-1.38a2.322,2.322,0,0,1,1.94.28,1.962,1.962,0,0,0,.32.17c2.99,1.29,5.36,3.16,6.13,6.55.23,1.03,1.02,1.3,2,1.32s1.98.13,2.97.23c.84.09,4.41,3.82,4.37,4.63a20.5,20.5,0,0,1-.22,3.58c-.21.91-.23,1.75,1.14,1.74.66-.01,1.34.37,1.99.32a3.4,3.4,0,0,1,3.21,1.87,16.388,16.388,0,0,0,1.99,2.54,2.58,2.58,0,0,1,.54,3.01c-.44,1.36-.67,2.79-1.08,4.16-.21.69-.12,1.06.64.89,1.65-.36,2.57.48,3.33,1.8a16.328,16.328,0,0,0,1.88,2.63,3.193,3.193,0,0,1,.68,3.19c-.39,1.62-.67,3.27-.93,4.92a2.294,2.294,0,0,1-.94,1.57q-10.245,7.77-20.47,15.59a1.285,1.285,0,0,1-1.66.16c-1.89-1.03-3.84-1.97-5.8-2.84-.88-.39-.88-.64-.25-1.3,4.03-4.22,8.02-8.47,12.02-12.7a1.366,1.366,0,0,1,.17-.17c.35-.33.61-.66.18-1.12-.49-.53-.78-.06-1.06.24q-3.51,3.69-7.01,7.39c-1.89,2-3.79,4-5.66,6.02a.948.948,0,0,1-1.33.24q-4.6-2.295-9.25-4.51c-.74-.35-.73-.63-.2-1.2q6.375-6.825,12.71-13.7c1.38-1.5,2.71-3.04,4.09-4.54a.753.753,0,0,0,.04-1.16c-.5-.51-.69.12-.9.35q-8.265,8.91-16.5,17.85c-1.28,1.4-1.21,1.34-2.97.62a8.892,8.892,0,0,1-3.63-3.01c-1.03-1.32-2.03-2.67-3.1-3.96-.49-.58-.46-.95.06-1.5,3.2-3.4,6.37-6.84,9.54-10.26,2.55-2.75,5.09-5.52,7.64-8.27.35-.38.68-.7.11-1.16-.61-.49-.72.15-1,.42-3.03,3.01-5.87,6.2-8.77,9.33-2.69,2.9-5.39,5.78-8.09,8.67C65.41,182.38,65.14,182.61,64.78,182.95Z" fill="#b2b2b2"/>
    <path id="Caminho_116" data-name="Caminho 116" d="M111.99,146.66c1.42-2.51,2.85-5.02,4.27-7.53.23-.41.5-.46.84-.1.86.88,1.74,1.76,2.62,2.63.65.64,0,.79-.38,1-2.38,1.37-4.76,2.72-7.15,4.08A1.669,1.669,0,0,1,111.99,146.66Z" fill="#b2b2b2"/>
    <path id="Caminho_117" data-name="Caminho 117" d="M58.99,203.6a4.152,4.152,0,0,1-.51-.32l-2.79-2.79c-.31-.31-.23-.54.13-.75,2.22-1.26,4.43-2.52,6.65-3.78.17-.1.39-.2.52.02a.561.561,0,0,1-.01.44c-1.27,2.26-2.56,4.51-3.83,6.77A1.8,1.8,0,0,0,58.99,203.6Z" fill="#b2b2b2"/>
    <path id="Caminho_118" data-name="Caminho 118" d="M112.18,195.55c1.92,1.09,3.84,2.17,5.75,3.28,2.17,1.27,2.17,1.28.34,3.09-1.72,1.69-1.73,1.7-2.93-.36-1.12-1.92-2.21-3.86-3.32-5.8C112.07,195.69,112.13,195.62,112.18,195.55Z" fill="#b2b2b2"/>
    <path id="Caminho_119" data-name="Caminho 119" d="M63.09,146.81l-7.38-4.23c-.46-.26-.37-.54-.06-.85.84-.85,1.69-1.68,2.53-2.53.39-.39.66-.31.92.15q2.07,3.66,4.16,7.3C63.2,146.7,63.14,146.76,63.09,146.81Z" fill="#b2b2b2"/>
  </g>
</svg>
