<?xml version="1.0" encoding="utf-8"?>
<!-- Generator: Adobe Illustrator 24.0.1, SVG Export Plug-In . SVG Version: 6.00 Build 0)  -->
<svg version="1.1" id="Layer_1" xmlns="http://www.w3.org/2000/svg" xmlns:xlink="http://www.w3.org/1999/xlink" x="0px" y="0px"
	 viewBox="0 0 2000 2000" style="enable-background:new 0 0 2000 2000;" xml:space="preserve">
<style type="text/css">
	.st0{fill:#0092BD;}
	.st1{fill:#4996C9;}
	.st2{fill:#FBD304;}
	.st3{fill:#FFD504;}
	.st4{fill:#4796C8;}
</style>
<path class="st0" d="M161.03,1122.95c1.68,0.62,2.91,0.03,4.16-1.15c2.07-1.97,4.23-3.72,7.05-4.85c4.03-1.61,7.95-1.64,11.95-0.53
	c1.51,0.42,2.98,0.73,4.54,0.81c3.07,0.14,6.21-0.16,9.04,1.59c0.74,0.46,1.89,0.37,2.85,0.38c2.91,0.02,5.84-0.14,8.56,1.21
	c5.48-0.16,10.72,1.47,16.08,2.1c2.69,0.32,5.4,0.2,8,1.23c1.03,0.41,2.29,0.37,3.45,0.35c2.94-0.03,5.82,0.03,8.49,1.53
	c0.63,0.36,1.5,0.43,2.26,0.43c3.5,0.01,7-0.05,10.29,1.43c6.06-0.62,11.83,2.04,17.88,1.6c1.37-0.1,2.68,0.12,3.92,0.84
	c0.82,0.47,1.81,0.98,2.71,0.95c4.33-0.12,8.48,0.59,12.52,2.07c5.88-0.71,11.43,2.19,17.3,1.58c2.65-0.28,4.6,1.95,7.23,1.96
	c2.5,0.01,5.07-0.39,7.48,0.67c0.35,0.16,0.72,0.44,1.07,0.42c6.27-0.31,12.19,2.04,18.38,2.34c1.96,0.09,3.86,0.29,5.74,0.86
	c1.1,0.34,2.26,0.67,3.4,0.67c3.13,0,6.23,0.02,9.06,1.61c0.32,0.18,0.76,0.31,1.12,0.27c5.48-0.67,10.65,1.72,16.08,1.58
	c1.75-0.05,3.5-0.05,5.12,0.82c1.25,0.67,2.64,0.6,3.99,0.57c5.07-0.11,9.32,1.75,13.34,4.75c3.15,2.35,5.11,5.26,5.75,8.96
	c1.41,8.17,5.62,15.35,8.16,23.11c5.85,10.14,12.01,20.03,20.61,28.24c6.17,5.88,12.64,11.29,19.98,15.72
	c5.69,3.44,8.77,8.5,8.45,15.32c-0.17,3.64-0.16,7.26-1.22,10.81c-0.38,1.27-0.49,2.66-0.45,3.99c0.08,2.73-0.32,5.34-1.36,7.87
	c-0.29,0.7-0.64,1.46-0.64,2.19c0.02,4.6-0.59,9.08-1.49,13.6c-0.66,3.32-0.1,6.83-1.66,10.1c-0.53,1.12-0.23,2.64-0.24,3.98
	c-0.02,2.3-0.14,4.57-0.8,6.83c-0.42,1.44-0.42,3.02-0.47,4.54c-0.07,2.3,0.05,4.59-0.95,6.78c-0.38,0.84-0.48,1.87-0.48,2.81
	c-0.01,4.43-0.35,8.79-1.9,13.02c-0.44,1.21-0.29,2.65-0.3,3.99c-0.01,2.32-0.14,4.6-1.28,6.71c-0.27,0.5-0.58,1.09-0.54,1.62
	c0.41,5.41-1.61,10.57-1.58,15.93c0.01,1.91,0.12,3.84-0.87,5.62c-0.18,0.33-0.34,0.73-0.33,1.09c0.15,5.19-0.93,10.24-1.52,15.36
	c-0.28,2.47-0.31,4.96-1.02,7.37c-0.7,2.41-1.15,4.85-1.07,7.37c0.01,0.38-0.02,0.78-0.12,1.14c-1.57,5.71-2.16,11.57-2.92,17.41
	c-0.2,1.51-0.39,3.03-0.45,4.55c-0.11,2.86,0.32,5.78-1.23,8.43c0.03,5.18-1.08,10.22-1.86,15.31c-0.49,3.19-0.7,6.41-1.34,9.62
	c-0.93,4.66-1.16,9.46-1.7,14.21c-0.7,6.25-3.53,11.19-8.92,14.75c-2.35,1.55-5.18,1.52-7.6,2.77c-0.57,0.3-1.54,0.06-2.26-0.14
	c-4.07-1.18-8.15-2.35-12.18-3.65c-10.46-3.37-20.67-7.39-30.83-11.53c-4.65-1.9-9.09-4.31-13.62-6.5
	c-1.05-0.51-2.04-1.13-3.09-1.62c-14.99-6.89-28.82-15.72-42.42-24.92c-12.19-8.24-23.67-17.39-34.52-27.27
	c-9.41-8.57-18.67-17.27-27.08-26.88c-8.49-9.71-16.68-19.65-24.31-30c-9.47-12.84-17.94-26.38-25.48-40.42
	c-3.71-6.91-7.32-13.91-10.33-21.19c-2.85-6.88-6.07-13.61-9.1-20.42c-0.38-0.86-0.61-1.79-0.92-2.68
	c-1.86-5.41-3.51-10.91-5.66-16.21c-1.81-4.45-2.62-9.12-3.95-13.67c-1-3.44-1.25-7.04-2.91-10.37c-1.26-2.52-1.83-5.47-2.23-8.29
	c-0.51-3.59-1.23-7.18-2-10.66c-1.07-4.83-0.39-9.94-2.63-14.57c-0.55-1.13-0.33-2.63-0.44-3.96c-0.12-1.53-0.11-3.07-0.31-4.58
	c-0.26-1.94-1.43-3.09-3.47-3.27C161.03,1160.55,161.03,1141.75,161.03,1122.95z"/>
<path class="st0" d="M500.49,1493.57c0.35-1.06-0.06-1.81-0.91-2.46c-3.17-2.44-5.04-5.66-6.28-9.42c-1-3.03-1.25-5.98-0.22-8.97
	c0.82-2.38,1.2-4.79,1.37-7.3c0.24-3.42,0.43-6.85,1.63-10.16c0.5-1.39,0.43-3.01,0.51-4.53c0.1-1.91,0.03-3.83,0.93-5.61
	c0.25-0.5,0.52-1.11,0.47-1.63c-0.57-5.59,1.47-10.94,1.42-16.48c-0.02-1.91-0.14-3.84,0.84-5.61c0.09-0.16,0.18-0.36,0.18-0.54
	c-0.18-5.77,1.82-11.27,2.17-16.96c0.14-2.31,0.3-4.61,1.13-6.76c0.92-2.38,1.2-4.79,1.23-7.3c0.02-2.47-0.15-4.99,1.04-7.32
	c0.17-0.33,0.3-0.75,0.26-1.1c-0.58-5.58,1.69-10.9,1.51-16.45c-0.04-1.14-0.2-2.46,0.29-3.4c1.67-3.24,1.48-6.67,1.48-10.1
	c0-0.19-0.04-0.4,0.02-0.57c1.61-4.37,1.53-8.98,1.97-13.52c0.75-7.77,3.04-15.35,3.11-23.21c0.01-1.39,0.47-2.62,1.04-3.84
	c1.01,0.03,1.85,0.42,2.66,1c3.91,2.83,7.9,5.56,11.76,8.44c14.53,10.85,29.03,21.75,43.54,32.64c3.71,2.78,7.33,5.67,11.14,8.31
	c2.94,2.04,3.96,4.33,2.63,7.8c-1.51,3.93-2.67,8-3.93,12.02c-3.95,12.62-7.83,25.26-11.81,37.87c-2.88,9.14-5.89,18.24-8.81,27.37
	c-0.52,1.63-0.99,3.29-1.33,4.97c-0.11,0.55,0.58,1.15,1.13,0.88c1.2-0.59,2.35-1.33,3.42-2.15c3.22-2.46,6.34-5.04,9.58-7.47
	c12.36-9.25,24.77-18.45,37.14-27.68c6.34-4.73,12.64-9.52,18.98-14.25c2.31-1.73,3.07-1.79,5.15-0.24
	c6.8,5.07,13.57,10.2,20.36,15.29c6.79,5.1,13.66,10.1,20.38,15.29c4.87,3.76,10.24,6.92,14.56,11.37c-1.61,1.68-3.4,3.08-5.45,4.25
	c-11.74,6.69-23.58,13.24-35.95,18.71c-8.96,3.96-17.87,8.14-27.43,10.7c-4.06,1.09-7.93,2.85-11.95,4.12
	c-7.67,2.42-15.29,5.01-23.29,6.33c-4.36,0.72-8.57,2.27-12.91,3.1c-6.23,1.19-12.44,2.78-18.89,2.27
	c-0.34,0.19-0.68,0.39-1.02,0.58c-0.01,0.57-0.02,1.15-0.03,1.72c-0.78,0-1.56,0-2.33,0c-0.65-0.36-1.27-0.94-1.95-1.04
	c-1.33-0.18-2.69-0.11-4.04-0.11c-12.92-0.01-25.83-0.03-38.75,0.02c-1.85,0.01-3.91-0.63-5.42,1.13
	C502.05,1493.57,501.27,1493.57,500.49,1493.57z"/>
<path class="st0" d="M1905,1282.94c-0.95,0.58-1.02,1.55-1.14,2.5c-0.66,5.12-3.1,9.46-6.33,13.36
	c-5.39,6.5-12.03,11.24-20.07,14.25c-8.3,3.1-16.8,4.38-25.62,4.49c-12.33,0.15-24.38-1.47-36.19-4.91
	c-7.48-2.18-14.51-5.38-21.06-9.56c-2.87-1.83-2.99-2.25-1.56-5.08c4.17-8.22,8.39-16.42,12.65-24.59c1.24-2.38,2.25-2.71,4.69-1.52
	c6.96,3.39,14,6.55,21.33,9.11c6.67,2.33,13.46,3.66,20.53,3.48c1.74-0.04,3.51-0.16,5.19-0.56c2.45-0.59,4.11-2.16,4.41-4.76
	c0.28-2.36-0.88-4.06-2.84-5.25c-2-1.21-4.18-2.02-6.45-2.58c-6.2-1.54-12.47-2.89-18.6-4.67c-8.01-2.32-15.79-5.14-22.87-9.75
	c-10.94-7.12-16.22-17.1-16.73-29.85c-0.22-5.46,0.72-10.69,2.5-15.8c2.28-6.53,6.42-11.72,11.89-15.97
	c6.89-5.36,14.88-8.3,23.35-9.81c17.58-3.12,34.81-1.57,51.51,4.79c6.02,2.29,11.42,5.7,16.35,9.79c1.47,1.22,1.61,1.84,0.52,3.43
	c-5.12,7.45-10.25,14.88-15.48,22.26c-1.81,2.56-2.38,2.61-5.25,0.77c-5.91-3.8-12.23-6.61-19.08-8.31
	c-5.35-1.33-10.77-1.26-16.21-0.88c-0.95,0.07-1.93,0.3-2.81,0.67c-3.35,1.39-4.12,4.83-1.72,7.49c1.61,1.78,3.7,2.81,5.95,3.45
	c5.59,1.59,11.19,3.17,16.83,4.58c9.44,2.36,18.62,5.34,26.97,10.44c7.42,4.53,12.65,10.63,14.34,19.31
	c0.09,0.48,0.64,0.87,0.98,1.3C1905,1270.66,1905,1276.8,1905,1282.94z"/>
<path class="st1" d="M502.82,1493.57c1.5-1.76,3.57-1.12,5.42-1.13c12.92-0.05,25.83-0.03,38.75-0.02c1.35,0,2.71-0.07,4.04,0.11
	c0.69,0.1,1.31,0.68,1.95,1.04C536.27,1493.57,519.55,1493.57,502.82,1493.57z"/>
<path class="st0" d="M736.3,1137.33c-2.48-0.38-5.02-0.25-7.41-1.33c-1.01-0.46-2.26-0.42-3.4-0.56c-0.57-0.07-1.2,0.1-1.74-0.04
	c-5.79-1.51-11.82-1.55-17.63-2.94c-0.38-0.09-0.75-0.28-1.12-0.29c-4.64-0.08-9.17-0.5-13.74-1.71c-3.46-0.92-7.29-0.41-10.84-1.65
	c-1.23-0.43-2.69-0.25-4.05-0.24c-1.76,0-3.46-0.17-5.13-0.8c-2.56-0.97-5.25-1.27-8-1.19c-1.34,0.04-2.83,0.07-4.01-0.44
	c-2.61-1.13-5.29-1.04-8-1.06c-0.77-0.01-1.69,0.16-2.3-0.18c-3.57-2-7.56-1.21-11.29-1.9c-3.63-0.67-7.32-0.69-10.85-1.4
	c-7.25-1.45-12.57-5.45-14.77-12.93c-1.93-6.55-3.75-13.18-6.69-19.37c-4.11-8.65-9.06-16.79-15.04-24.4
	c-6.03-7.68-13.29-13.87-21.05-19.63c-1.54-1.14-3.21-2.11-4.85-3.12c-1.99-1.22-3.81-2.63-5.34-4.4c-3.11-3.59-5.21-7.46-4.8-12.47
	c0.31-3.82,0.25-7.64,1.89-11.25c0.46-1.01,0.59-2.23,0.62-3.35c0.09-3.06,0-6.07,1.34-9.01c0.6-1.31,0.34-3.01,0.39-4.53
	c0.06-2.29,0.01-4.54,0.97-6.76c0.51-1.17,0.4-2.62,0.44-3.95c0.09-2.86-0.17-5.71,1.02-8.49c0.5-1.16,0.31-2.64,0.32-3.97
	c0.02-2.3-0.04-4.6,0.92-6.78c0.15-0.35,0.31-0.74,0.29-1.11c-0.28-5.41,1.63-10.56,1.9-15.91c0.05-0.95,0.02-1.95,0.29-2.85
	c1.89-6.23,1.9-12.78,3.28-19.09c0.24-1.11,0.27-2.28,0.3-3.42c0.08-2.85-0.24-5.73,1.17-8.44c0.4-0.78,0.25-1.88,0.22-2.83
	c-0.09-3.09,0.07-6.12,1.36-9.01c0.23-0.51,0.39-1.13,0.33-1.67c-0.61-5.8,2.02-11.29,1.66-17.06c-0.02-0.36,0.22-0.73,0.33-1.09
	c2.13-1.06,2.21-1.37,0.85-3.38c0.14-0.79,0.28-1.59,0.42-2.38c2.24-1.74,2.36-2.82,0.63-5.72c-0.12-2.04-0.66-4.16,1.29-5.74
	c1.9-0.13,3-1.16,3.43-2.95c0.04-0.39,0.25-0.59,0.65-0.6c0,0-0.07-0.03-0.07-0.03c0.58-0.36,1.15-0.72,1.73-1.09
	c0.36-0.29,0.72-0.58,1.07-0.87l0.24-0.22c1.61-0.03,3.18-0.1,3.27-2.27c0.27-0.67,0.75-1.1,1.49-1.21c0.3-0.17,0.57-0.37,0.82-0.61
	l0.15-0.39l0.42-0.05c1.93-0.16,3.67-0.58,3.98-2.91c1.05-1.36,2.26-2.51,3.99-2.97c0.3-0.17,0.56-0.39,0.78-0.65l0.13-0.37
	l0.39-0.05c0.79-0.15,1.49-0.43,1.81-1.25l0.03-0.02c1.14-0.04,2.04-0.4,2.2-1.69c-0.01-0.39,0.18-0.58,0.58-0.58
	c1.59,0.02,3.01-0.19,3.04-2.24l0.1-0.08c1-0.05,1.85-0.31,2.13-1.41l-0.13,0.07c2.28,0.29,3.43-0.84,3.81-2.94l0.3-0.23
	c1.58-0.08,3.1-0.23,3.14-2.33c0.68-1.23,1.71-2.03,3.07-2.43l0.01-0.05c0.55-0.36,1.09-0.71,1.64-1.07
	c0.37-0.3,0.74-0.59,1.11-0.89l0.24-0.18c1.62-0.04,3.21-0.14,3.25-2.33c0.28-0.7,0.8-1.1,1.56-1.17c0.26-0.16,0.5-0.35,0.73-0.55
	c0.04-0.39,0.26-0.56,0.65-0.51c0.76-0.19,1.45-0.47,1.69-1.31c0.68-1.41,1.99-2.16,3.24-2.93c1.08-0.66,2.14-0.39,2.98,0.57
	l-0.13-0.13c0.34,0.38,0.68,0.76,1.02,1.14c0.28,0.78,0.86,1.17,1.67,1.26l0.4-0.01l0.18,0.35c0.26,2.38,1.66,3.32,3.99,3.09
	c0.93,0.05,1.51,0.55,1.83,1.38c0.06,2.12,1.61,2.24,3.19,2.3l0.31,0.24c0.36,0.27,0.73,0.55,1.09,0.82
	c1.18,0.24,2.02,0.91,2.51,1.99c0.29,1.13,1.15,1.42,2.19,1.46l0.08,0.05c0.26,0.78,0.93,1.04,1.65,1.24
	c0.42-0.03,0.66,0.16,0.73,0.57c0.21,0.16,0.43,0.32,0.65,0.47c0.77,0.13,1.29,0.57,1.59,1.27c0.25,2.82,2.14,3.43,4.58,3.33
	l0.14,0.11c0.23,0.64,0.73,0.92,1.36,1.05c1,0.29,1.75,0.89,2.25,1.78c0.3,2.34,2.03,2.78,3.98,2.93l0.42,0.07l0.15,0.4
	c0.24,0.21,0.5,0.4,0.76,0.58c0.76,0.08,1.26,0.5,1.55,1.18c0.07,2.18,1.65,2.26,3.27,2.29l0.25,0.21c0.36,0.29,0.72,0.58,1.08,0.88
	c0.56,0.36,1.12,0.72,1.69,1.08c0,0-0.03,0.03-0.03,0.03c1.35,0.39,2.41,1.15,3.11,2.37c0.44,0.34,0.87,0.69,1.31,1.03
	c0,0-0.06-0.08-0.06-0.08c0.23,0.96,0.95,1.26,1.84,1.33c0.52,0.42,1.04,0.83,1.55,1.25c0.11,1.4,0.62,2.56,2.06,3.05
	c0.74,0.25,1.54,0.23,2.04-0.47c0.84-1.16,0.66-2.48,0.32-3.75c-0.22-0.83-1.02-1.02-1.75-1.22c-0.44-1.06-0.97-2.09-1.32-3.18
	c-3.47-10.76-6.98-21.5-10.29-32.3c-0.71-2.32-2.02-4.6-1.49-7.2c0.93-0.59,1.92-0.35,2.78,0.03c1.94,0.86,3.93,1.68,5.69,2.83
	c16.28,10.72,32.47,21.53,47.18,34.4c10.61,9.29,21.02,18.75,30.43,29.21c6.3,7,12.54,14.04,18.29,21.53
	c6.44,8.39,12.71,16.88,18.54,25.68c8.8,13.29,16.53,27.17,23.47,41.52c3.83,7.92,6.74,16.24,10.83,24.03
	c0.53,1.01,0.99,2.09,1.24,3.2c1.39,6.37,4.23,12.18,6.89,18.07c0.18,2.32-1.57,4.4-0.89,6.79c-0.54,0.55-0.48-0.51-0.45,0.26
	c0,0.12,0.12,0.34,0.15,0.34c0.49-0.09,0.55-0.33,0.17-0.68c0.71,0.96,1.62,0.32,2.45,0.31c1.4,4.73,3.03,9.4,3.54,14.34
	c3.24,5.58,2.73,12.23,5.22,18.02c-0.32,4.06,1.71,7.81,1.63,11.84c-0.03,1.35,0.06,2.67,0.66,3.93c0.68,1.43,0.67,2.97,0.69,4.51
	c0.04,2.86-0.13,5.71,0.99,8.5c0.47,1.18,0.26,2.65,0.26,3.98c0.01,16.29-0.14,32.59,0.1,48.87c0.07,4.49-1.81,7.26-5.45,9.27
	c-4.73,2.6-9.67,4.14-15,1.91c-1.87-0.78-3.76-0.78-5.69-0.91c-2.5-0.17-5.08,0.13-7.4-1.15c-5.66,0.21-11.03-1.76-16.6-2.18
	c-1.94-0.15-3.82-0.14-5.69-0.93c-1.2-0.51-2.66-0.65-3.99-0.57c-3.55,0.2-6.94-0.49-10.31-1.45c-1.26-1.55-1.41-3.54-2.18-5.29
	c-0.9-2.05-0.41-3.66,1.46-4.98c2.83-2.01,5.58-4.13,8.37-6.21c8.05-5.99,16.1-11.99,24.15-17.99c0.3-0.22,0.59-0.52,0.76-0.84
	c0.17-0.31,0.33-0.75,0.22-1.04c-0.1-0.28-0.53-0.6-0.84-0.62c-1.35-0.08-2.71-0.08-4.07-0.08c-12.03,0-24.06,0.03-36.09-0.01
	c-4.02-0.01-4.16-0.17-5.31-3.82c-2.87-9.14-5.71-18.28-8.57-27.42c-0.69-2.19-1.24-4.44-2.13-6.55c-0.82-1.96-0.38-4.56-2.81-5.76
	c-1.98,3.91-2.93,8.18-4.43,12.26c-0.07,0.18-0.09,0.37-0.15,0.56c-2.95,9.31-5.95,18.62-8.83,27.95c-0.61,1.97-1.72,2.85-3.75,2.79
	c-1.36-0.04-2.72,0-4.07,0c-11.26,0-22.51,0-33.77,0c-1.16,0-2.33-0.04-3.49,0.02c-0.33,0.02-0.76,0.25-0.93,0.51
	c-0.35,0.56,0,1.09,0.43,1.46c0.73,0.62,1.53,1.17,2.31,1.74c10.19,7.63,20.38,15.28,30.6,22.87
	C735.66,1134.93,736.56,1135.77,736.3,1137.33z"/>
<path class="st0" d="M435.24,1060.19c-5.52,6.43-10.46,13.22-14.68,20.59c-2.93,5.12-7.7,7.98-13.9,7.97
	c-3.88,0-7.76,0.11-11.49-1.33c-0.87-0.33-1.91-0.35-2.87-0.32c-3.13,0.08-6.19-0.1-9.12-1.39c-0.85-0.37-1.9-0.4-2.86-0.41
	c-2.91-0.02-5.8,0.03-8.56-1.21c-0.83-0.37-1.91-0.26-2.88-0.28c-2.9-0.07-5.83,0.21-8.57-1.16c-0.65-0.33-1.52-0.25-2.29-0.3
	c-0.77-0.05-1.56-0.08-2.33-0.02c-3.41,0.25-6.36-1.71-9.65-1.92c-3.28-0.21-6.59,0.12-9.71-1.41c-0.99-0.48-2.25-0.54-3.39-0.59
	c-3.1-0.13-6.19-0.04-9.12-1.38c-0.82-0.38-1.91-0.26-2.88-0.26c-3.11,0.01-6.23,0.16-9.07-1.42c-0.16-0.09-0.37-0.15-0.56-0.14
	c-5.07,0.08-9.94-1.42-14.93-1.78c-2.34-0.17-4.62-0.37-6.86-1.06c-2.23-0.69-4.52-1.07-6.88-0.98c-1.15,0.04-2.43,0.11-3.45-0.31
	c-2.98-1.21-6.06-1.18-9.16-1.18c-0.58,0-1.26,0.11-1.73-0.14c-5.13-2.76-11.15-0.83-16.39-3.05c-0.84-0.36-1.92-0.23-2.89-0.22
	c-2.73,0.05-5.39-0.09-7.99-1.15c-1.23-0.5-2.65-0.7-3.99-0.73c-2.93-0.05-5.78-0.18-8.59-1.24c-1.21-0.46-2.68-0.28-4.03-0.38
	c-1.35-0.1-2.88,0.2-4.03-0.32c-3.68-1.68-7.58-1.25-11.39-1.78c-4.01-0.56-8.05-0.95-12.03-1.54c-3.37-0.5-6.85-1.11-10.14-2.01
	c-8.29-2.28-15.49-10.79-12.27-21.38c1.05-3.45,1.93-6.98,2.53-10.54c0.62-3.64,2.35-6.84,3.53-10.25c0.74-2.16,1.84-4.22,2.45-6.41
	c1.7-6.1,4.28-11.84,6.7-17.67c4.12-9.91,8.78-19.55,13.75-29.04c6.23-11.89,13.09-23.42,20.81-34.46
	c3.74-5.35,7.3-10.82,11.43-15.88c4.48-5.51,8.36-11.47,13.35-16.6c2.41-2.48,4.58-5.19,6.8-7.84c6.58-7.84,14.25-14.62,21.68-21.63
	c9.69-9.14,19.86-17.75,30.72-25.49c10.83-7.72,21.86-15.15,33.48-21.77c7.56-4.31,15.38-8.07,23.09-12.05
	c6.32-3.27,12.96-5.99,19.61-8.59c8.96-3.51,18.02-6.81,27.13-9.92c4.72-1.61,9.66-2.56,14.47-3.95c6.83-1.97,14.02-2.36,20.76-4.75
	c0.88-0.31,1.93-0.12,2.88-0.3c5.29-0.98,10.59-1.87,15.89-2.75c1.72-0.28,3.4-0.65,5.14-0.65c15.16-0.01,30.32,0.07,45.47-0.06
	c3.47-0.03,6,1.25,8.03,3.77c4.1,5.1,5.67,10.88,4.07,17.25c-0.52,2.07-0.87,4.08-1.01,6.2c-0.14,2.09-0.49,4.19-0.96,6.24
	c-0.74,3.19-1.39,6.36-1.19,9.66c0.06,0.95,0.11,2.01-0.24,2.85c-1.45,3.47-1.39,7.09-1.43,10.73c-0.01,0.93-0.36,1.87-0.62,2.78
	c-0.21,0.73-0.79,1.45-0.76,2.15c0.27,5.4-1.54,10.58-1.6,15.93c-0.03,2.3,0.08,4.59-1,6.76c-0.33,0.66-0.45,1.48-0.47,2.23
	c-0.28,8.05-2.02,15.9-3.32,23.81c-0.19,1.13-0.25,2.28-0.33,3.43c-0.05,0.76,0.15,1.58-0.06,2.29c-1.76,5.89-1.41,12.09-2.76,18.04
	c-0.21,0.93-0.33,1.89-0.36,2.83c-0.1,3.23,0.28,6.51-1.28,9.57c-0.32,0.64-0.25,1.51-0.23,2.27c0.06,2.89-0.67,5.69-0.99,8.52
	c-0.77,6.85-2.23,13.57-3.17,20.37c-0.65,4.7-1.09,9.48-1.56,14.22c-0.41,4.13-1.27,8.25-1.28,12.45
	c-2.58,4.92-0.97,10.62-2.96,15.66c-0.4,1.02-0.27,2.27-0.27,3.42c0,2.31-0.15,4.55-0.83,6.81c-0.49,1.62-0.56,3.41-0.58,5.12
	c-0.03,2.92-0.83,5.58-1.79,8.34c-2.18,6.23-6.88,9.46-12.76,11.48c-2.36,0.81-4.85,1.23-7.24,1.97c-6.13,1.9-11.7,4.99-17.23,8.12
	c-4.54,2.57-9.04,5.22-12.93,8.76c-0.7,0.64-1.63,1.02-2.46,1.51c-0.35-0.68-0.82-1.32-1.05-2.04c-2.72-8.59-5.4-17.2-8.11-25.8
	c-1.85-5.85-3.74-11.69-5.6-17.54c-1.39-4.4-1.43-4.47,2.18-7.21c9.39-7.13,18.81-14.21,28.24-21.28
	c7.42-5.56,14.88-11.07,22.29-16.64c0.66-0.49,1.85-0.88,1.25-2.18c-1.43-0.95-3.02-0.5-4.53-0.5c-19.04-0.03-38.08-0.02-57.12-0.02
	c-1.55,0-3.11-0.03-4.66-0.02c-1.82,0.01-2.82-0.93-3.36-2.59c-0.95-2.92-2.04-5.79-2.96-8.72c-5.72-18.31-11.4-36.63-17.1-54.95
	c-0.11-0.36-0.22-0.78-0.47-1.03c-0.43-0.42-1.04-0.55-1.48-0.02c-0.36,0.43-0.67,0.95-0.84,1.48
	c-5.6,17.94-11.17,35.89-16.77,53.83c-0.97,3.11-2.1,6.18-3.06,9.29c-0.6,1.95-1.83,2.8-3.86,2.73c-1.36-0.05-2.72-0.01-4.08-0.01
	c-18.85,0-37.69-0.01-56.54,0c-1.55,0-3.11,0.03-4.64,0.2c-0.51,0.06-1.06,0.71-0.58,1.28c0.6,0.72,1.36,1.34,2.11,1.91
	c14.68,11.02,29.37,22.02,44.05,33.04c2.32,1.74,4.6,3.52,6.95,5.23c1.45,1.05,1.83,2.39,1.38,4.04c-0.2,0.74-0.4,1.48-0.63,2.21
	c-6.4,20.31-12.82,40.62-19.21,60.93c-0.27,0.86-1.01,1.7-0.06,3.02c3.18-1.72,5.99-4.03,8.88-6.2
	c14.99-11.24,29.96-22.51,44.95-33.75c2.3-1.73,2.74-1.74,5.08,0c12.4,9.23,24.79,18.47,37.14,27.75
	C433.5,1058.1,434.32,1059.22,435.24,1060.19z"/>
<path class="st0" d="M516.46,1307.81c0.24-3.79-0.23-7.63,1.22-11.35c0.52-1.35,0.17-3.04,0.18-4.57c0.01-2.11-0.15-4.23,0.96-6.17
	c0.09-0.16,0.2-0.36,0.19-0.54c-0.36-5.99,2.35-11.6,2.28-17.55c-0.03-2.31,0.17-4.58,0.95-6.8c0.37-1.06,0.55-2.24,0.55-3.37
	c-0.01-3.12,0.89-6,1.87-8.94c1.89-5.67,6.2-8.92,11.54-10.37c14.59-3.95,27.57-10.69,39.26-20.1c7.73-6.22,14.27-13.37,19.78-21.58
	c2.24-3.34,4.3-6.81,6.61-10.09c3.01-4.27,7.25-6.88,12.63-7.04c4.05-0.12,8.18-0.36,11.97,1.62c0.33,0.17,0.76,0.32,1.12,0.29
	c5.48-0.57,10.65,1.89,16.1,1.58c1.75-0.1,3.45,0.06,5.12,0.8c1.02,0.45,2.26,0.57,3.41,0.57c3.32-0.01,6.57,0.05,9.65,1.59
	c0.81,0.41,1.9,0.4,2.86,0.38c3.14-0.08,6.18,0.14,9.11,1.45c1.01,0.45,2.27,0.51,3.41,0.54c2.92,0.07,5.77,0.13,8.59,1.19
	c1.38,0.52,3.07,0.22,4.61,0.33c2.5,0.18,5.03,0,7.43,1.09c1,0.45,2.27,0.4,3.43,0.44c2.51,0.1,5.08-0.26,7.31,1.34
	c0.3,0.21,0.74,0.33,1.11,0.32c5.48-0.2,10.68,1.53,16.03,2.17c2.69,0.32,5.38,0.36,8,1.27c1.23,0.43,2.68,0.27,4.03,0.35
	c1.16,0.07,2.44-0.19,3.47,0.21c3.87,1.47,7.85,2.01,11.96,1.84c5.29,2.18,11.2,0.57,16.53,2.65c1.03,0.4,2.31,0.18,3.47,0.23
	c0.97,0.03,1.95-0.03,2.91,0.05c2.9,0.22,5.34,2.34,8.42,1.95c2.75-0.34,5.4,0.3,7.97,1.26c0.54,0.2,1.12,0.48,1.67,0.47
	c4.86-0.04,9.59,0.93,14.37,1.6c2.85,0.4,5.75,0.21,8.54,1.34c1.18,0.48,2.68,0.25,4.04,0.27c1.95,0.02,3.91,0.05,5.69,0.96
	c1.25,0.64,2.57,0.91,3.94,0.79c4.44-0.38,7.93,1.65,11,4.41c5.11,4.57,7.26,10.12,5.59,16.99c-2.56,10.55-6.11,20.78-9.75,31
	c-3.73,10.46-8.44,20.48-13.09,30.54c-5.95,12.88-12.84,25.25-20.4,37.28c-4.5,7.16-9.38,14.07-14.38,20.89
	c-3.98,5.42-7.76,11.04-12.24,16.03c-8.1,9.02-15.75,18.44-24.51,26.89c-12.91,12.45-26.5,24.11-40.9,34.83
	c-2.78,2.07-5.81,3.82-8.72,5.72c-1.44-2.11-1.99-4.57-2.74-6.93c-6.15-19.39-12.26-38.79-18.38-58.19
	c-1.86-5.91-1.9-5.96,2.93-9.64c5.23-3.98,10.56-7.82,15.83-11.75c16.43-12.24,32.86-24.48,49.27-36.74
	c0.75-0.56,1.39-1.31,1.98-2.04c0.12-0.15-0.13-0.9-0.27-0.92c-1.34-0.16-2.69-0.31-4.04-0.31c-26.05-0.01-52.09,0-78.14,0.01
	c-1.36,0-2.72-0.03-4.08,0c-1.8,0.03-2.93-0.84-3.49-2.47c-1.3-3.81-2.66-7.61-3.87-11.45c-2.88-9.15-5.67-18.32-8.53-27.47
	c-4.51-14.47-9.05-28.93-13.58-43.39c-0.17-0.55-0.34-1.11-0.62-1.6c-0.17-0.29-0.54-0.52-0.87-0.63c-0.68-0.22-1.16,0.25-1.38,0.75
	c-0.39,0.87-0.63,1.8-0.91,2.71c-1.5,4.96-2.94,9.93-4.49,14.88c-4.48,14.28-8.99,28.54-13.5,42.81c-2.37,7.5-4.77,14.99-7.13,22.5
	c-0.72,2.3-2.09,3.62-4.66,3.39c-0.58-0.05-1.17-0.01-1.75-0.01c-26.24,0-52.48,0-78.72-0.03
	C520.29,1308.33,518.31,1308.67,516.46,1307.81z"/>
<path class="st0" d="M1307.79,1162.03c-0.87,1.53-0.17,2.96,0.29,4.41c0.56,1.79,1.8,3.41,1.5,5.4c-1.28,0.88-2.67,0.6-3.99,0.6
	c-12.25,0.02-24.49,0.01-36.74,0.01c-0.58,0-1.17-0.03-1.75-0.01c-1.98,0.08-3.21-0.62-3.82-2.68c-0.97-3.31-2.24-6.53-3.41-9.78
	c-0.39-1.08-0.78-2.17-1.28-3.21c-0.44-0.91-1.26-1.45-2.3-1.51c-0.97-0.06-1.94-0.07-2.91-0.07c-11.47,0-22.94,0-34.41,0
	c-0.78,0-1.55,0.03-2.33,0.02c-1.83-0.02-2.78,0.95-3.36,2.59c-1.48,4.16-3.11,8.26-4.57,12.42c-0.52,1.48-1.41,2.21-2.97,2.2
	c-1.17-0.01-2.33,0.02-3.5,0.02c-24.69,0-49.37,0.01-74.06-0.01c-6.34-0.01-5.32,0.57-8.89-4.64c-5.66-8.25-11.46-16.41-16.8-24.86
	c-2.12-3.36-4.65-4.24-8.21-3.69c-1.08,0.17-1.81,0.74-1.89,1.83c-0.12,1.53-0.16,3.06-0.16,4.59c-0.02,7.29,0,14.58-0.01,21.86
	c0,0.96,0.01,1.92-0.08,2.87c-0.09,1.04-0.59,1.82-1.76,1.91c-0.97,0.08-1.94,0.12-2.91,0.12c-11.27,0.01-22.55,0.01-33.82,0
	c-0.97,0-1.94-0.01-2.91-0.08c-1.41-0.09-2.02-0.95-2.08-2.26c-0.05-1.15-0.06-2.3-0.06-3.45c0-38.74,0-77.48,0-116.22
	c0-0.58-0.01-1.15,0.01-1.73c0.12-3.63,0.29-3.89,4.06-3.89c20.22,0,40.44-0.3,60.64,0.21c11.35,0.28,22.3,3.18,32.03,9.35
	c9.93,6.3,16.29,15.12,18.88,26.55c1.76,7.8,1.69,15.58-0.06,23.36c-2.24,9.97-7.64,17.9-15.88,24c-0.31,0.23-0.66,0.4-0.98,0.62
	c-5.17,3.49-5.37,3.01-1.8,8.31c5.8,8.62,11.76,17.14,17.66,25.69c0.43,0.62,0.94,1.19,1.41,1.79c1.71-0.49,1.79-1.95,2.27-3.1
	c4.52-11.01,9.01-22.02,13.51-33.03c6.54-15.99,13.09-31.97,19.62-47.96c4.42-10.84,8.87-21.66,13.18-32.55
	c0.91-2.29,2.12-3.31,4.7-3.28c12.44,0.1,24.88,0.1,37.32,0c2.59-0.02,3.83,1.07,4.72,3.31c2.88,7.32,5.89,14.59,8.87,21.88
	c6.61,16.17,13.23,32.33,19.83,48.5c4.56,11.19,9.08,22.39,13.62,33.59c0.29,0.71,0.59,1.42,0.9,2.12c0.3,0.7,0.55,1.54,1.42,1.68
	c0.9,0.15,1.32-0.61,1.69-1.26c0.57-1,1.1-2.03,1.62-3.06c3.14-6.16,6.28-12.33,9.43-18.49c0.44-0.86,0.85-1.73,1.35-2.55
	c1.05-1.74,2.26-2.25,3.84-1.22c4.43,2.85,9.34,4.74,14.14,6.74c8.78,3.67,17.82,6.59,27.54,6.59c2.14,0,4.3,0,6.3-0.9
	c2.02-0.91,3.71-2.14,3.96-4.55c0.27-2.6-0.92-4.33-3.18-5.62c-3.78-2.15-7.93-3.08-12.12-3.93c-8.2-1.65-16.24-3.81-24.01-6.89
	c-7.46-2.96-14.18-7.04-19.7-12.94c-2.97-3.18-5.11-6.82-6.37-10.86c-3.18-10.25-3-20.49,1.41-30.36
	c3.23-7.22,8.64-12.65,15.61-16.55c8.45-4.74,17.61-7.07,27.22-7.64c10.9-0.65,21.75-0.19,32.42,2.43
	c9.54,2.35,18.27,6.42,26.07,12.34c2.2,1.67,2.37,2.56,0.82,4.82c-5.1,7.47-10.27,14.9-15.47,22.31c-1.27,1.81-1.92,1.87-3.83,0.67
	c-4.76-3.01-9.76-5.52-15.07-7.45c-4.61-1.67-9.41-2.3-14.24-2.79c-3.13-0.32-6.22,0.15-9.22,1c-2.01,0.56-3.39,1.86-3.65,4.02
	c-0.23,1.89,0.6,3.34,2.11,4.45c1.88,1.4,3.96,2.46,6.21,3.09c3.17,0.89,6.37,1.67,9.56,2.49c9.58,2.46,19.27,4.6,28.08,9.29
	c2.73,1.45,5.44,2.99,7.97,4.75c5.39,3.77,9.18,8.8,11.19,15.03c1.23,3.82,2.46,7.57,2.6,11.72c0.22,6.53-1.49,12.51-4.05,18.35
	c-5.51,12.61-16.01,19.48-28.72,23.33c-12.03,3.64-24.39,4.49-36.88,2.37c-4.01-0.68-8.04-1.3-12.04-2.06
	c-9.6-1.83-18.71-4.98-27.19-9.85c-0.63-0.37-1.46-0.4-2.2-0.59c-0.18-0.26-0.15-1.14-0.74-0.25
	C1307.24,1161.92,1307.52,1161.97,1307.79,1162.03z M1092.23,1093.08c0,0-0.01,0-0.01,0c0,3.24-0.05,6.49,0.02,9.73
	c0.06,2.83,0.63,3.49,3.29,3.56c4.83,0.11,9.67,0.25,14.45-0.6c1.32-0.24,2.64-0.59,3.88-1.07c4.78-1.86,8.04-6.52,7.81-11.64
	c-0.22-4.93-2.49-8.72-7.26-10.8c-2.15-0.93-4.39-1.59-6.7-1.68c-4.25-0.17-8.5-0.15-12.75-0.09c-2.05,0.03-2.64,0.69-2.69,2.88
	C1092.17,1086.59,1092.23,1089.83,1092.23,1093.08z M1236.41,1125.73c0-0.02,0-0.03,0-0.05c3.09,0,6.19,0.06,9.28-0.03
	c1.39-0.04,2.1-1.05,1.81-2.31c-0.21-0.93-0.48-1.85-0.79-2.75c-2.76-8.14-5.52-16.28-8.31-24.4c-0.31-0.89-0.8-1.73-1.29-2.54
	c-0.17-0.28-0.61-0.56-0.93-0.55c-0.21,0-0.5,0.47-0.61,0.79c-1.99,5.57-3.99,11.14-5.92,16.74c-1.37,3.97-2.67,7.96-3.93,11.97
	c-0.64,2.02,0,3.05,1.98,3.12C1230.6,1125.81,1233.51,1125.73,1236.41,1125.73z"/>
<path class="st2" d="M516.46,1307.81c1.85,0.85,3.83,0.51,5.74,0.52c26.24,0.03,52.48,0.03,78.72,0.03c0.58,0,1.17-0.04,1.75,0.01
	c2.58,0.22,3.94-1.1,4.66-3.39c2.36-7.51,4.76-15,7.13-22.5c4.51-14.27,9.03-28.53,13.5-42.81c1.55-4.94,2.99-9.92,4.49-14.88
	c0.28-0.91,0.52-1.84,0.91-2.71c0.23-0.51,0.7-0.98,1.38-0.75c0.33,0.11,0.71,0.34,0.87,0.63c0.29,0.49,0.45,1.06,0.62,1.6
	c4.53,14.46,9.07,28.92,13.58,43.39c2.85,9.15,5.65,18.33,8.53,27.47c1.21,3.84,2.56,7.64,3.87,11.45c0.56,1.63,1.68,2.51,3.49,2.47
	c1.36-0.03,2.72,0,4.08,0c26.05-0.01,52.09-0.02,78.14-0.01c1.35,0,2.7,0.14,4.04,0.31c0.14,0.02,0.39,0.77,0.27,0.92
	c-0.6,0.73-1.23,1.48-1.98,2.04c-16.41,12.26-32.84,24.5-49.27,36.74c-5.27,3.92-10.6,7.77-15.83,11.75
	c-4.83,3.67-4.79,3.73-2.93,9.64c6.12,19.4,12.23,38.8,18.38,58.19c0.75,2.37,1.3,4.82,2.74,6.93c1.59,5.1,3.19,10.2,4.73,15.32
	c0.14,0.46-0.06,1.19-0.38,1.57c-0.57,0.69-1.44,0.54-2.07,0.07c-3.23-2.43-6.41-4.93-9.64-7.38c-1.22-0.93-2.51-1.76-3.77-2.64
	c-4.32-4.45-9.69-7.6-14.56-11.37c-6.72-5.19-13.58-10.2-20.38-15.29c-6.79-5.09-13.55-10.22-20.36-15.29
	c-2.08-1.55-2.83-1.49-5.15,0.24c-6.34,4.74-12.64,9.52-18.98,14.25c-12.37,9.24-24.78,18.43-37.14,27.68
	c-3.24,2.43-6.36,5.01-9.58,7.47c-1.07,0.81-2.21,1.56-3.42,2.15c-0.54,0.27-1.24-0.33-1.13-0.88c0.34-1.68,0.81-3.34,1.33-4.97
	c2.93-9.13,5.93-18.23,8.81-27.37c3.98-12.61,7.86-25.25,11.81-37.87c1.26-4.03,2.42-8.09,3.93-12.02c1.33-3.47,0.31-5.76-2.63-7.8
	c-3.81-2.64-7.43-5.53-11.14-8.31c-14.51-10.88-29-21.79-43.54-32.64c-3.86-2.89-7.85-5.62-11.76-8.44c-0.81-0.58-1.66-0.97-2.66-1
	C515.62,1309.4,515.72,1308.51,516.46,1307.81z"/>
<path class="st0" d="M966.85,1172.51c-11.27,0-22.55,0-33.82,0c-1.17,0-2.33,0.03-3.5-0.02c-2.69-0.11-3.12-0.49-3.24-2.95
	c-0.07-1.34-0.03-2.68-0.03-4.03c0-37.97,0-75.95,0-113.92c0-0.96-0.02-1.92,0.01-2.88c0.11-3.64,0.27-3.88,4.07-3.89
	c23.52-0.01,47.04-0.07,70.56,0.11c8.45,0.06,16.64,2.08,24.16,5.8c12.46,6.16,17.77,17.59,16.25,30.99
	c-0.66,5.87-3.1,11.05-6.62,15.74c-2.47,3.29-5.93,5.46-9.36,7.65c-1.05,0.67-0.99,1.55,0.07,2.2c0.49,0.3,1.01,0.58,1.52,0.85
	c0.86,0.45,1.74,0.86,2.58,1.34c11.98,6.79,17.72,17.11,16.52,30.58c-1.08,12.15-7.59,21.16-18.83,26.5
	c-7.98,3.79-16.47,5.76-25.34,5.82c-11.66,0.08-23.33,0.02-34.99,0.02C966.85,1172.45,966.85,1172.48,966.85,1172.51z
	 M983.06,1139.14c0,0,0-0.01,0-0.01c3.28,0,6.57,0.08,9.85-0.02c2.76-0.08,5.44-0.77,7.35-2.85c3.65-3.97,2.12-10.93-2.86-13.06
	c-1.57-0.67-3.33-1.2-5.02-1.24c-6.57-0.15-13.14-0.09-19.71-0.09c-1.36,0-2.25,0.68-2.27,2.04c-0.05,4.38-0.04,8.77-0.01,13.15
	c0.01,1.37,0.86,2.07,2.22,2.08C976.11,1139.15,979.59,1139.14,983.06,1139.14z M980.99,1078.25c-2.7,0-5.41-0.05-8.11,0.02
	c-1.78,0.05-2.45,0.68-2.48,2.43c-0.07,4-0.08,8-0.02,12c0.04,2.28,0.47,2.73,2.71,2.75c5.21,0.05,10.43,0.05,15.64-0.06
	c1.32-0.03,2.67-0.38,3.92-0.83c3.42-1.22,5.31-3.69,5.57-7.28c0.26-3.59-1.67-6.47-5.21-8.13c-1.44-0.68-2.94-0.89-4.49-0.9
	C986.01,1078.23,983.5,1078.25,980.99,1078.25z"/>
<path class="st0" d="M1188.92,1250.55c0-18.6,0-37.2,0-55.81c0-1.34-0.03-2.69,0.01-4.03c0.11-3.47,0.49-3.93,4.15-3.95
	c14.58-0.05,29.15-0.09,43.73,0c6.6,0.04,13.22,0.15,19.8,0.63c11,0.8,21.39,3.67,30.59,9.98c11.65,7.99,17.7,19.04,18.4,32.94
	c0.39,7.7,0.01,15.31-3.01,22.62c-3.27,7.9-8.68,13.97-15.69,18.79c-0.95,0.66-1.99,1.19-2.9,1.91c-0.65,0.51-0.82,1.33-0.37,2.06
	c0.8,1.31,1.67,2.58,2.54,3.85c6.61,9.7,13.29,19.37,19.79,29.14c1.07,1.61,3.71,3.17,2.29,5.33c-1.06,1.62-3.62,0.72-5.5,0.73
	c-11.47,0.05-22.94-0.18-34.4,0.13c-4.1,0.11-6.41-1.46-8.49-4.63c-5.59-8.53-11.37-16.93-17.12-25.35
	c-2.39-3.51-4.24-4.19-8.34-3.3c-0.87,0.19-1.31,0.78-1.37,1.6c-0.09,1.34-0.13,2.68-0.13,4.02c-0.01,7.1,0,14.19-0.01,21.29
	c0,1.34-0.01,2.69-0.08,4.02c-0.07,1.38-0.98,2.02-2.27,2.14c-0.96,0.1-1.94,0.09-2.91,0.09c-11.08,0.01-22.16,0.01-33.24,0
	c-1.16,0-2.33-0.04-3.48-0.19c-1.07-0.14-1.78-0.87-1.86-1.91c-0.14-1.72-0.13-3.45-0.14-5.17
	C1188.91,1288.52,1188.92,1269.54,1188.92,1250.55z M1232.95,1235.07c0,3.63-0.03,7.27,0.02,10.9c0.02,1.29,0.73,2.23,2.11,2.23
	c4.84,0.01,9.73,0.32,14.51-0.22c4.71-0.53,8.95-2.51,11.17-7.18c3.49-7.36-0.46-15.59-8.47-17.57c-5.72-1.41-11.54-1.02-17.35-0.84
	c-1.42,0.05-1.96,1.08-1.97,2.35C1232.94,1228.19,1232.96,1231.63,1232.95,1235.07z"/>
<path class="st0" d="M1434.86,1250.57c0-18.79,0-37.58,0.01-56.36c0-1.72,0.04-3.45,0.14-5.17c0.06-1.11,0.83-1.71,1.87-1.84
	c0.96-0.12,1.94-0.11,2.91-0.11c19.04,0.02,38.08,0.06,57.12,0.05c6.85,0,13.58,0.96,20.11,2.82c11.32,3.22,20.96,9.05,27.56,18.99
	c4.46,6.72,6.88,14.13,7,22.2c0.06,4.21,0.22,8.44-0.51,12.62c-2.05,11.76-8.22,20.92-18.04,27.77c-0.79,0.55-1.67,0.98-2.46,1.54
	c-1.38,0.99-1.55,1.84-0.57,3.44c1.11,1.8,2.33,3.54,3.51,5.29c6.26,9.24,12.53,18.47,18.79,27.7c0.65,0.95,1.28,1.92,1.86,2.92
	c0.57,0.99,0.14,2.03-0.92,2.14c-1.35,0.14-2.7,0.21-4.06,0.21c-11.85,0.02-23.71-0.13-35.55,0.09c-3.59,0.07-5.75-1.24-7.6-4.05
	c-5.29-8.02-10.73-15.96-16.1-23.93c-0.43-0.64-0.8-1.32-1.23-1.95c-2.4-3.5-4.23-4.23-8.33-3.32c-0.85,0.19-1.35,0.75-1.42,1.58
	c-0.1,1.33-0.16,2.68-0.17,4.01c-0.02,7.29,0,14.57-0.02,21.85c0,1.34-0.08,2.68-0.23,4c-0.09,0.83-0.72,1.37-1.54,1.5
	c-0.95,0.15-1.93,0.2-2.89,0.2c-11.46,0.01-22.93,0.01-34.39,0c-0.97,0-1.94-0.07-2.9-0.2c-1.07-0.15-1.78-0.84-1.86-1.89
	c-0.12-1.72-0.13-3.45-0.13-5.17C1434.86,1288.53,1434.86,1269.55,1434.86,1250.57z M1478.53,1235.35c-0.01,0-0.02,0-0.03,0
	c0,3.44-0.02,6.89,0.01,10.33c0.01,1.23,0.44,2.45,1.84,2.49c5.62,0.18,11.27,0.6,16.83-0.34c6.2-1.05,10.88-6.69,10.84-12.49
	c-0.03-6.15-4.24-10.81-10.86-12.31c-5.38-1.21-10.8-0.72-16.22-0.67c-1.6,0.02-2.35,0.87-2.39,2.65
	C1478.46,1228.46,1478.53,1231.9,1478.53,1235.35z"/>
<path class="st0" d="M1107.18,1317.49c-9.59,0.51-19.63-1.79-29.04-6.08c-13.42-6.12-23.77-15.64-30.49-28.87
	c-6.39-12.57-8.44-25.93-6.87-39.67c2.57-22.58,13.51-40.1,34.13-51.02c9.37-4.96,19.49-7.43,30.15-7.82
	c10.02-0.36,19.74,0.96,29.16,4.4c14.18,5.18,25.23,14.01,32.98,26.88c7.59,12.62,10.53,26.39,9.38,40.81
	c-1.02,12.76-4.91,24.81-12.81,35.25c-4.68,6.19-10.32,11.44-16.98,15.57C1134.97,1314.28,1122.08,1317.84,1107.18,1317.49z
	 M1131.64,1250.67c0.18-6.14-1.2-12.07-4.43-17.48c-4.36-7.29-10.6-11.62-19.52-11.26c-8.58,0.35-14.57,4.65-18.33,12.11
	c-5.99,11.88-5.66,23.65,1.02,35.15c3.77,6.49,9.71,9.8,17.17,10.24c8.34,0.48,14.58-3.31,19.04-10.05
	C1130.3,1263.76,1131.84,1257.5,1131.64,1250.67z"/>
<path class="st0" d="M1561.76,1250.83c0-18.59,0-37.19,0-55.78c0-1.34-0.02-2.68,0.01-4.03c0.1-3.69,0.21-3.86,4.03-3.88
	c7.58-0.05,15.15-0.02,22.73-0.02c24.48,0,48.96,0,73.44,0c6.8,0,6.49-0.32,6.49,6.11c0,8.43,0.03,16.87-0.03,25.3
	c-0.02,2.9-0.44,3.29-3.44,3.31c-9.33,0.05-18.65,0.02-27.98,0.03c-8.94,0-17.87-0.01-26.81,0.01c-1.35,0-2.72,0.05-4.06,0.19
	c-0.83,0.09-1.42,0.71-1.54,1.49c-0.53,3.23-0.44,6.49-0.06,9.73c0.1,0.82,0.85,1.3,1.65,1.35c1.55,0.11,3.1,0.11,4.66,0.11
	c13.99,0.01,27.98-0.01,41.96,0.01c7.87,0.01,7.02-0.62,7.06,7.24c0.03,5.94,0.01,11.88,0,17.83c0,1.34-0.03,2.68-0.13,4.02
	c-0.08,1.09-0.8,1.79-1.84,1.89c-1.54,0.15-3.1,0.14-4.65,0.15c-12.63,0.01-25.26-0.02-37.88,0.03c-2.71,0.01-5.43,0.22-8.13,0.49
	c-2.08,0.2-2.72,0.86-2.82,2.95c-0.13,2.68-0.08,5.36-0.04,8.05c0.02,1.34,0.81,2.12,2.17,2.19c1.55,0.07,3.11,0.07,4.66,0.07
	c17.68,0,35.36-0.01,53.04,0.01c6.01,0.01,6.03,0.04,6.05,6.12c0.02,8.43,0.04,16.87-0.03,25.3c-0.02,3.04-0.66,3.56-3.83,3.69
	c-1.16,0.05-2.33,0.02-3.5,0.02c-31.47,0-62.95,0-94.42,0c-7.26,0-6.74,0.35-6.74-6.45
	C1561.76,1289.17,1561.76,1270,1561.76,1250.83z"/>
<path class="st3" d="M844.64,1026.51c-0.83,0.01-1.74,0.65-2.45-0.31l0.13,0.09c-0.68-2.39,1.07-4.47,0.89-6.79
	c2.67-8.4,5.32-16.8,8-25.19c3.38-10.59,6.79-21.16,10.16-31.75c1.13-3.54,0.92-4.07-2.07-6.28c-13.65-10.11-27.3-20.23-40.94-30.35
	c-2.79-2.07-5.56-4.17-8.29-6.31c-1.31-1.03-2.52-2.19-3.72-3.25c0.84-1.39,1.89-0.92,2.79-0.92c20.59,0.01,41.19,0.02,61.78,0.04
	c0.58,0,1.17,0.02,1.75-0.01c3.15-0.13,3.57-0.33,4.56-3.39c2.86-8.94,5.62-17.9,8.43-26.85c3.85-12.24,7.71-24.48,11.6-36.7
	c0.16-0.49,0.52-1.11,0.95-1.28c1.1-0.45,1.27,0.62,1.47,1.24c1.69,5.09,3.34,10.19,4.97,15.3c3.77,11.86,7.52,23.73,11.28,35.61
	c1.38,4.38,2.78,8.76,4.1,13.16c0.65,2.15,1.94,2.99,4.26,2.98c14.18-0.08,28.37-0.03,42.55-0.05c6.99-0.01,13.99-0.04,20.98-0.07
	c0.95,0,1.96-0.21,2.61,0.87c-0.86,1.81-2.73,2.61-4.21,3.73c-8.46,6.4-17.02,12.66-25.52,19.02c-7.73,5.78-15.43,11.6-23.13,17.42
	c-2.67,2.02-2.85,2.5-1.82,5.89c1.72,5.68,3.52,11.34,5.32,17.01c4.86,15.34,9.74,30.68,14.6,46.01c0.12,0.36,0.25,0.74,0.25,1.11
	c0,0.35-0.08,0.82-0.31,1.02c-0.22,0.19-0.78,0.26-1.03,0.11c-1.16-0.69-2.3-1.42-3.37-2.22c-9.27-6.94-18.53-13.89-27.78-20.86
	c-6.32-4.76-12.56-9.64-18.95-14.31c-6.72-4.92-5.28-4.67-11.88-0.05c-7.74,5.43-15.11,11.37-22.68,17.04
	c-7.25,5.44-14.56,10.82-21.81,16.26C846.89,1024.38,845.8,1025.49,844.64,1026.51z"/>
<path class="st2" d="M435.24,1060.19c-0.93-0.97-1.74-2.09-2.8-2.88c-12.36-9.28-24.74-18.53-37.14-27.75
	c-2.34-1.74-2.78-1.73-5.08,0c-14.99,11.24-29.96,22.51-44.95,33.75c-2.89,2.17-5.7,4.48-8.88,6.2c-0.94-1.31-0.21-2.16,0.06-3.02
	c6.4-20.31,12.81-40.62,19.21-60.93c0.23-0.73,0.43-1.47,0.63-2.21c0.45-1.65,0.07-2.98-1.38-4.04c-2.34-1.71-4.63-3.49-6.95-5.23
	c-14.68-11.01-29.37-22.02-44.05-33.04c-0.76-0.57-1.52-1.18-2.11-1.91c-0.47-0.57,0.07-1.22,0.58-1.28c1.53-0.17,3.09-0.2,4.64-0.2
	c18.85-0.01,37.69-0.01,56.54,0c1.36,0,2.72-0.04,4.08,0.01c2.03,0.08,3.26-0.78,3.86-2.73c0.96-3.12,2.09-6.18,3.06-9.29
	c5.6-17.94,11.17-35.89,16.77-53.83c0.17-0.53,0.48-1.05,0.84-1.48c0.44-0.53,1.04-0.4,1.48,0.02c0.25,0.25,0.36,0.67,0.47,1.03
	c5.7,18.32,11.38,36.64,17.1,54.95c0.91,2.93,2.01,5.8,2.96,8.72c0.54,1.66,1.54,2.6,3.36,2.59c1.55-0.01,3.11,0.02,4.66,0.02
	c19.04,0,38.08-0.01,57.12,0.02c1.5,0,3.1-0.45,4.53,0.5c0.6,1.3-0.59,1.68-1.25,2.18c-7.41,5.57-14.87,11.08-22.29,16.64
	c-9.43,7.07-18.85,14.15-28.24,21.28c-3.61,2.74-3.57,2.81-2.18,7.21c1.85,5.85,3.75,11.69,5.6,17.54c2.71,8.6,5.39,17.2,8.11,25.8
	c0.23,0.72,0.69,1.36,1.05,2.04c1.64,5.22,3.28,10.44,4.9,15.67c0.22,0.71,0.49,1.44,0.51,2.16c0.02,0.59-0.64,1.12-1.14,0.8
	c-2.24-1.44-4.43-2.97-6.57-4.55C440.06,1063.23,437.95,1061.28,435.24,1060.19z"/>
<path class="st3" d="M652.24,837.18c-0.5-1.08-1.33-1.75-2.51-1.99c-0.11-0.61-0.45-0.9-1.09-0.82c0,0-0.31-0.24-0.31-0.24
	c-0.58-1.42-1.73-2.08-3.19-2.3c-0.32-0.83-0.91-1.33-1.84-1.38c-0.96-1.49-2.1-2.76-3.99-3.09l-0.18-0.35c0,0-0.4,0.01-0.4,0.01
	c-0.3-0.74-0.88-1.13-1.66-1.26c-0.34-0.38-0.68-0.76-1.02-1.14c0,0,0.13,0.13,0.13,0.13c-0.84-0.96-1.9-1.23-2.98-0.57
	c-1.25,0.76-2.57,1.52-3.24,2.93c-0.84,0.08-1.52,0.38-1.69,1.31c-0.39-0.05-0.61,0.12-0.65,0.5c-0.52-0.18-0.75,0.02-0.73,0.55
	c-0.77,0.07-1.28,0.47-1.56,1.17c-1.4,0.35-2.59,0.97-3.25,2.33c0,0-0.24,0.18-0.24,0.17c-0.65-0.04-1.05,0.22-1.11,0.89
	c-0.55,0.36-1.09,0.71-1.63,1.07c0,0-0.08-0.19-0.08-0.19l0.07,0.24c-1.36,0.4-2.39,1.2-3.07,2.43c-1.44,0.26-2.54,0.96-3.14,2.33
	c0,0-0.3,0.23-0.3,0.23c-1.88,0.21-2.94,1.46-3.81,2.94c0,0,0.13-0.07,0.13-0.07c-0.99,0.06-1.77,0.43-2.13,1.41
	c0,0-0.1,0.08-0.1,0.08c-1.42,0.2-2.51,0.85-3.04,2.24c-0.4-0.01-0.59,0.18-0.58,0.58c-0.98,0.25-1.8,0.7-2.2,1.69
	c0,0-0.03,0.02-0.03,0.02c-0.88,0.02-1.6,0.29-1.81,1.25l-0.39,0.05c0,0-0.13,0.37-0.13,0.37c-0.55-0.12-0.81,0.09-0.78,0.65
	c-1.73,0.46-2.94,1.61-3.99,2.97c-1.64,0.54-3.27,1.12-3.98,2.9l-0.42,0.05c0,0-0.15,0.39-0.15,0.39c-0.54-0.16-0.79,0.08-0.82,0.61
	c-0.74,0.11-1.22,0.54-1.49,1.21c-1.36,0.38-2.65,0.85-3.27,2.27c0,0-0.24,0.22-0.24,0.22c-0.62-0.03-0.99,0.24-1.07,0.87
	c-0.58,0.36-1.15,0.72-1.73,1.09c0,0,0.04-0.15,0.04-0.15l0.03,0.18c-0.4,0.01-0.61,0.21-0.65,0.6c-1.02-0.26-1.83-0.82-1.63-1.95
	c0.22-1.3,0.64-2.58,1.04-3.85c4.64-14.73,9.29-29.45,13.94-44.18c1.61-5.09,3.19-10.19,4.78-15.29c0.42-1.33,0.63-2.73-0.63-3.68
	c-2.28-1.7-4.17-4.02-7.2-4.58c-2.8-3.53-6.76-5.7-10.25-8.4c-6.56-5.07-13.25-9.98-19.91-14.94c-4.64-3.46-9.35-6.85-13.96-10.35
	c-1.18-0.9-3.39-1.81-2.98-3.13c0.63-2,3-0.93,4.57-0.94c19.62-0.07,39.24-0.04,58.87-0.05c5.54,0,5.57-0.02,7.22-5.3
	c6.1-19.56,12.18-39.13,18.26-58.7c0.4-1.28,0.76-2.58,1.28-3.82c0.19-0.45,0.71-0.93,1.18-1.08c0.74-0.22,0.93,0.49,1.1,1.03
	c2.87,9.33,5.69,18.68,8.62,27.99c3.85,12.24,7.77,24.46,11.71,36.67c0.98,3.05,1.2,3.18,4.57,3.19c20.01,0.02,40.02,0,60.03,0.02
	c1.84,0,3.74-0.27,5.57,0.34c-0.33,1.87-1.65,2.47-2.66,3.23c-11.6,8.66-23.24,17.26-34.85,25.91c-5.26,3.92-10.46,7.92-15.72,11.84
	c-1.8,1.34-2.2,2.81-1.44,4.98c1.95,5.61,3.65,11.3,5.48,16.95c0.1,0.32,0.5,0.56,0.76,0.83c-0.63,0.68-0.91,1.33,0.2,1.83
	c0,0,0.02-0.12,0.02-0.11c-0.53,2.6,0.78,4.88,1.49,7.2c3.31,10.8,6.82,21.55,10.29,32.3c0.35,1.09,0.87,2.12,1.32,3.18
	c-0.43,2.39-0.43,2.39-2.67,2.39c-0.52-0.42-1.04-0.83-1.55-1.25c-0.25-0.94-0.94-1.28-1.84-1.33c0,0,0.06,0.08,0.06,0.08
	c-0.12-0.74-0.61-1.01-1.3-1.03c-0.7-1.22-1.76-1.97-3.11-2.37c0,0,0.06-0.21,0.06-0.21s-0.03,0.18-0.03,0.18
	c-0.56-0.36-1.12-0.72-1.68-1.08c-0.08-0.63-0.45-0.91-1.08-0.88c0,0-0.25-0.21-0.25-0.21c-0.65-1.37-1.86-1.97-3.27-2.29
	c-0.29-0.69-0.78-1.1-1.54-1.18c0-0.52-0.25-0.72-0.77-0.58l-0.15-0.4c0,0-0.42-0.07-0.42-0.07c-0.75-1.74-2.3-2.42-3.98-2.93
	c-0.5-0.9-1.25-1.49-2.25-1.78c0.02-0.94-0.61-1.07-1.36-1.05c0,0-0.14-0.11-0.14-0.11c-1.03-1.77-2.62-2.79-4.58-3.33
	c-0.3-0.7-0.82-1.14-1.59-1.27c0,0-0.15-0.48-0.15-0.48l-0.5,0.01c-0.07-0.41-0.31-0.6-0.73-0.57c-0.15-0.93-0.79-1.23-1.65-1.24
	c0,0-0.08-0.05-0.08-0.05C654.05,837.64,653.19,837.35,652.24,837.18z"/>
<path class="st0" d="M1732.52,1317.4c-12.75,0.25-25.13-2-37.17-5.96c-6.45-2.12-12.57-5.07-18.18-8.92
	c-1.87-1.28-2.04-1.92-1.08-3.82c4.42-8.74,8.87-17.47,13.36-26.18c0.91-1.77,1.83-1.98,3.82-0.99c7.11,3.52,14.3,6.86,21.83,9.46
	c6.48,2.23,13.07,3.62,19.96,3.49c1.55-0.03,3.12-0.07,4.64-0.32c3.24-0.52,5.31-2.4,5.57-5.02c0.3-2.92-1.53-4.69-3.85-5.88
	c-1.7-0.88-3.6-1.43-5.47-1.91c-6.19-1.6-12.45-2.97-18.6-4.68c-8.43-2.35-16.59-5.39-23.86-10.39c-2.4-1.65-4.46-3.62-6.53-5.66
	c-12.83-12.65-11.88-38.31,0.11-50.61c4.39-4.51,9.25-8.09,15.06-10.51c8.89-3.71,18.15-5.37,27.79-5.49
	c11.17-0.13,22.06,1.19,32.69,4.65c7.47,2.43,14.21,6.11,20.28,11.02c2,1.62,2.12,2.15,0.63,4.32c-5.01,7.29-10.06,14.56-15.15,21.8
	c-1.66,2.35-2.56,2.48-5.32,0.67c-6.06-3.96-12.59-6.79-19.65-8.43c-5.36-1.25-10.79-1.14-16.22-0.67c-1.39,0.12-2.63,0.65-3.67,1.6
	c-1.92,1.74-2.08,4.11-0.45,6.15c1.64,2.05,3.91,3.13,6.36,3.83c5.22,1.5,10.4,3.15,15.7,4.31c6.67,1.46,13.02,3.76,19.37,6.13
	c4.77,1.78,9.07,4.45,12.99,7.59c7.17,5.75,10.63,13.61,11.59,22.46c0.75,6.92-0.18,13.7-2.83,20.29
	c-2.82,7.03-7.5,12.47-13.52,16.9c-9.49,6.97-20.42,9.92-32.04,10.74C1737.97,1317.56,1735.24,1317.4,1732.52,1317.4z"/>
<path class="st0" d="M928.92,1250.59c0-18.79,0-37.59,0.01-56.38c0-1.72,0.05-3.45,0.16-5.17c0.07-1.11,0.85-1.71,1.9-1.82
	c1.16-0.12,2.33-0.1,3.49-0.1c31.48,0,62.97,0,94.45-0.01c6.04,0,5.85-0.08,5.85,5.57c-0.01,8.25,0,16.49-0.01,24.74
	c0,1.15,0,2.31-0.12,3.44c-0.12,1.07-0.86,1.71-1.94,1.77c-1.55,0.09-3.1,0.11-4.66,0.11c-16.13,0.01-32.26,0-48.39,0.01
	c-1.55,0-3.11-0.01-4.66,0.11c-1.06,0.08-1.88,0.69-1.89,1.81c-0.04,5.17-0.03,10.34,0.02,15.51c0.01,0.82,0.62,1.43,1.47,1.51
	c1.54,0.14,3.09,0.21,4.64,0.21c13.6,0.02,27.21,0.01,40.81,0.01c1.36,0,2.72-0.04,4.08,0.03c2.48,0.14,3.28,0.78,3.3,3.03
	c0.06,9.01,0.06,18.03,0,27.04c-0.01,2.33-0.81,3.11-3.1,3.33c-1.54,0.15-3.1,0.12-4.66,0.13c-13.41,0.01-26.82,0.01-40.23,0
	c-6.76-0.01-6.5-0.21-6.49,6.16c0.01,8.82,0,17.64,0,26.46c0,0.96,0.02,1.92-0.01,2.88c-0.1,3.59-0.22,3.77-4.12,3.79
	c-9.13,0.04-18.27,0.02-27.4,0.02c-3.11,0-6.22,0.05-9.33-0.04c-2.4-0.07-3.01-0.74-3.13-3.18c-0.08-1.53-0.03-3.07-0.03-4.6
	C928.92,1288.17,928.92,1269.38,928.92,1250.59z"/>
<path class="st0" d="M1367.19,1187.12c16.31,0,32.63,0,48.94,0c1.17,0,2.33-0.02,3.5,0c4.38,0.09,4.55,0.2,4.57,4.59
	c0.05,9.2,0.01,18.4,0.01,27.59c0,0.57,0.01,1.15-0.05,1.72c-0.19,2.05-0.87,2.81-2.81,2.96c-1.35,0.11-2.72,0.08-4.07,0.08
	c-7.38,0.01-14.76,0-22.14,0.01c-1.36,0-2.72,0.04-4.07,0.15c-1.09,0.08-1.82,0.79-1.91,1.82c-0.16,1.71-0.18,3.44-0.18,5.16
	c-0.01,25.49-0.01,50.97,0,76.46c0,7.63,0.35,7.13-7.32,7.13c-9.9-0.01-19.81,0-29.71,0c-1.55,0-3.11,0.01-4.66-0.06
	c-1.32-0.06-2.2-0.74-2.27-2.1c-0.08-1.72-0.08-3.45-0.08-5.17c0-25.49,0-50.97,0-76.46c0-7.16,0.46-6.94-6.94-6.92
	c-7.19,0.02-14.37,0.01-21.56,0c-1.36,0-2.72,0-4.08-0.06c-1.32-0.06-2.19-0.72-2.32-2.08c-0.09-0.95-0.08-1.91-0.08-2.87
	c-0.01-9.01,0-18.01,0-27.02c0-0.77-0.01-1.54,0.04-2.3c0.14-1.87,0.63-2.44,2.4-2.54c1.55-0.09,3.11-0.07,4.66-0.07
	C1333.79,1187.12,1350.49,1187.12,1367.19,1187.12z"/>
<path class="st0" d="M1520.94,1172.51c-13.99,0-27.99,0-41.98,0c-1.36,0-2.72,0.03-4.08-0.02c-2.75-0.11-3.25-0.61-3.4-3.47
	c-0.07-1.34-0.03-2.68-0.03-4.03c0-37.59,0-75.17,0-112.76c0-1.72-0.01-3.46,0.12-5.17c0.1-1.28,0.87-2.09,2.25-2.14
	c0.78-0.03,1.55-0.06,2.33-0.06c11.47,0,22.93-0.01,34.4,0c0.97,0,1.94,0.03,2.91,0.12c1.14,0.11,1.7,0.87,1.75,1.92
	c0.08,1.72,0.07,3.45,0.07,5.18c0,25.5,0,51.01,0,76.51c0,7.59-0.53,7.03,7.35,7.04c13.22,0.01,26.43,0,39.65,0
	c1.17,0,2.33-0.02,3.5,0.01c4.91,0.1,5.24,0.38,5.26,5.32c0.04,9.4,0.04,18.79-0.01,28.19c-0.02,2.84-0.5,3.23-3.45,3.35
	c-1.36,0.06-2.72,0.02-4.08,0.02C1549.32,1172.51,1535.13,1172.51,1520.94,1172.51z"/>
<path class="st0" d="M1419.53,1108.57c0-18.8,0-37.59,0-56.39c0-1.34-0.04-2.69,0.02-4.03c0.12-2.86,0.46-3.26,3.5-3.27
	c12.25-0.04,24.49-0.04,36.74,0.01c2.85,0.01,3.16,0.43,3.26,3.46c0.04,1.15,0.01,2.3,0.01,3.45c0,37.98,0,75.96,0,113.93
	c0,1.15,0.03,2.3-0.02,3.45c-0.11,2.98-0.31,3.24-3.45,3.25c-12.25,0.04-24.49,0.04-36.74-0.01c-2.9-0.01-3.2-0.41-3.31-3.44
	c-0.05-1.34-0.02-2.69-0.02-4.03C1419.53,1146.16,1419.53,1127.36,1419.53,1108.57z"/>
<path class="st2" d="M736.3,1137.33c0.27-1.56-0.64-2.4-1.81-3.27c-10.22-7.59-20.4-15.24-30.6-22.87
	c-0.77-0.58-1.57-1.12-2.31-1.74c-0.43-0.36-0.78-0.9-0.43-1.46c0.16-0.27,0.6-0.5,0.93-0.51c1.16-0.06,2.33-0.02,3.49-0.02
	c11.26,0,22.51,0,33.77,0c1.36,0,2.72-0.04,4.07,0c2.03,0.06,3.14-0.82,3.75-2.79c2.88-9.34,5.88-18.64,8.83-27.95
	c0.06-0.18,0.08-0.38,0.15-0.56c1.5-4.08,2.45-8.35,4.43-12.26c2.43,1.2,1.99,3.8,2.81,5.76c0.89,2.11,1.44,4.36,2.13,6.55
	c2.86,9.14,5.7,18.28,8.57,27.42c1.15,3.65,1.29,3.81,5.31,3.82c12.03,0.04,24.06,0.01,36.09,0.01c1.36,0,2.72-0.01,4.07,0.08
	c0.3,0.02,0.74,0.34,0.84,0.62c0.1,0.29-0.06,0.73-0.22,1.04c-0.18,0.32-0.46,0.62-0.76,0.84c-8.04,6-16.1,11.99-24.15,17.99
	c-2.79,2.07-5.54,4.19-8.37,6.21c-1.87,1.33-2.36,2.93-1.46,4.98c0.77,1.75,0.91,3.74,2.18,5.29c3.29,10.57,6.64,21.13,9.81,31.73
	c0.44,1.49,2.36,3.36,0.58,4.63c-1.36,0.96-2.7-1.08-3.86-1.93c-6.69-4.88-13.27-9.92-19.9-14.88c-3.55-2.65-7.18-5.2-10.69-7.9
	c-1.8-1.39-3.38-1.49-5.21-0.11c-3.24,2.42-6.6,4.67-9.83,7.11c-5.99,4.52-11.93,9.11-17.89,13.68c-0.61,0.47-1.2,1-1.88,1.35
	c-1.69,0.87-2.79,2.7-4.89,2.87c-1.39-2.18,0.33-4.04,0.87-5.87c3.44-11.54,7.13-23.01,10.72-34.51
	C735.77,1139.57,736.01,1138.44,736.3,1137.33z"/>
<path class="st1" d="M590.22,791c3.03,0.56,4.92,2.88,7.2,4.58c1.26,0.94,1.05,2.34,0.63,3.68c-1.59,5.1-3.17,10.2-4.78,15.29
	c-4.64,14.73-9.3,29.45-13.94,44.18c-0.4,1.27-0.81,2.55-1.04,3.85c-0.19,1.13,0.62,1.68,1.63,1.95c-0.43,1.79-1.54,2.82-3.43,2.95
	c0.04-1.91,0.3-3.84,0.06-5.71c-0.41-3.18,1.2-5.95,1.48-8.96c0.28-3-0.53-6.13,1.18-8.97c0.28-0.47,0.46-1.12,0.4-1.65
	c-0.6-5.77,1.72-11.27,1.57-17c-0.03-1.13,0.02-2.34,0.41-3.38c1.41-3.83,1.62-7.79,1.87-11.81c0.29-4.74,1.08-9.44,3.18-13.85
	C587.57,794.19,588.66,792.46,590.22,791z"/>
<path class="st1" d="M575.2,873.21c1.73,2.9,1.61,3.98-0.63,5.72C574.21,876.96,573.76,874.98,575.2,873.21z"/>
<path class="st1" d="M574.15,881.31c1.37,2.01,1.29,2.32-0.85,3.38C573.01,883.42,573.23,882.28,574.15,881.31z"/>
<path class="st4" d="M677.86,819.12c-1.1-0.5-0.83-1.15-0.2-1.83C678.06,817.86,678.13,818.47,677.86,819.12z"/>
<path class="st1" d="M555.35,1491.85c0.34-0.19,0.68-0.39,1.02-0.58C556.16,1491.69,555.88,1491.99,555.35,1491.85z"/>
<path class="st1" d="M688.3,864.08c2.24,0,2.24,0,2.67-2.39c0.73,0.2,1.53,0.39,1.75,1.22c0.34,1.27,0.52,2.59-0.32,3.75
	c-0.5,0.7-1.3,0.71-2.04,0.47C688.92,866.63,688.41,865.47,688.3,864.08z"/>
<path class="st1" d="M659.12,842.24c1.95,0.54,3.54,1.56,4.58,3.33C661.26,845.67,659.36,845.06,659.12,842.24z"/>
<path class="st1" d="M608.74,843.07c0.87-1.48,1.93-2.73,3.81-2.94C612.16,842.23,611.01,843.36,608.74,843.07z"/>
<path class="st1" d="M639.31,827.35c1.89,0.33,3.03,1.6,3.99,3.09C640.97,830.67,639.57,829.73,639.31,827.35z"/>
<path class="st1" d="M667.44,848.51c1.68,0.51,3.23,1.19,3.98,2.93C669.47,851.29,667.74,850.85,667.44,848.51z"/>
<path class="st1" d="M589.71,857.2c0.71-1.79,2.33-2.36,3.98-2.9C593.37,856.62,591.64,857.04,589.71,857.2z"/>
<path class="st1" d="M674.3,853.67c1.41,0.32,2.62,0.92,3.27,2.29C675.95,855.94,674.37,855.85,674.3,853.67z"/>
<path class="st1" d="M645.14,831.83c1.47,0.22,2.61,0.88,3.19,2.3C646.74,834.06,645.19,833.95,645.14,831.83z"/>
<path class="st1" d="M603.59,846.72c0.53-1.38,1.62-2.04,3.04-2.24C606.61,846.53,605.19,846.75,603.59,846.72z"/>
<path class="st1" d="M583.55,861.72c0.62-1.41,1.92-1.88,3.27-2.27C586.74,861.62,585.16,861.69,583.55,861.72z"/>
<path class="st1" d="M622.06,832.96c0.66-1.36,1.85-1.98,3.25-2.33C625.26,832.82,623.68,832.91,622.06,832.96z"/>
<path class="st1" d="M612.85,839.9c0.59-1.37,1.7-2.07,3.14-2.33C615.95,839.67,614.42,839.82,612.85,839.9z"/>
<path class="st1" d="M606.73,844.41c0.36-0.98,1.14-1.35,2.13-1.41C608.58,844.1,607.73,844.36,606.73,844.41z"/>
<path class="st1" d="M654.5,838.69c0.86,0.01,1.5,0.3,1.65,1.24C655.43,839.73,654.77,839.47,654.5,838.69z"/>
<path class="st1" d="M652.24,837.18c0.95,0.17,1.81,0.46,2.19,1.46C653.39,838.6,652.53,838.31,652.24,837.18z"/>
<path class="st1" d="M628.25,828.41c0.16-0.94,0.84-1.23,1.69-1.31C629.7,827.93,629.02,828.22,628.25,828.41z"/>
<path class="st1" d="M684.91,861.49c0.91,0.05,1.6,0.39,1.84,1.33C685.86,862.75,685.14,862.45,684.91,861.49z"/>
<path class="st1" d="M598.98,850.26c0.21-0.97,0.93-1.23,1.81-1.25C600.47,849.83,599.77,850.11,598.98,850.26z"/>
<path class="st1" d="M600.81,848.99c0.4-0.99,1.22-1.44,2.2-1.69C602.86,848.59,601.96,848.95,600.81,848.99z"/>
<path class="st1" d="M663.83,845.68c0.75-0.02,1.38,0.11,1.36,1.05C664.56,846.6,664.06,846.31,663.83,845.68z"/>
<path class="st1" d="M636.17,824.74c0,0-0.13-0.13-0.13-0.13C636.04,824.61,636.17,824.74,636.17,824.74z"/>
<path class="st1" d="M637.06,825.75c0.78,0.13,1.36,0.52,1.66,1.26C637.92,826.92,637.34,826.53,637.06,825.75z"/>
<path class="st3" d="M842.2,1026.21c0.38,0.35,0.33,0.59-0.17,0.68c-0.03,0.01-0.15-0.22-0.15-0.34c-0.03-0.77-0.09,0.3,0.45-0.26
	C842.32,1026.29,842.2,1026.21,842.2,1026.21z"/>
<polygon class="st1" points="580.58,863.92 580.55,863.75 580.51,863.9 "/>
<path class="st1" d="M671.99,851.91c0.52-0.15,0.77,0.06,0.77,0.58C672.49,852.32,672.23,852.12,671.99,851.91z"/>
<path class="st1" d="M597.67,851.33c-0.03-0.56,0.23-0.77,0.78-0.65C598.23,850.94,597.97,851.16,597.67,851.33z"/>
<path class="st1" d="M677.81,856.18c0.63-0.04,1.01,0.24,1.08,0.88C678.54,856.76,678.18,856.47,677.81,856.18z"/>
<polygon class="st1" points="680.58,858.13 680.61,857.96 680.56,858.17 "/>
<path class="st1" d="M648.64,834.36c0.64-0.08,0.98,0.22,1.09,0.82C649.36,834.91,649,834.64,648.64,834.36z"/>
<polygon class="st1" points="619.05,835.14 618.99,834.9 619.07,835.09 "/>
<path class="st1" d="M620.7,834.02c0.06-0.67,0.46-0.93,1.11-0.89C621.44,833.43,621.07,833.73,620.7,834.02z"/>
<path class="st1" d="M588.31,858.24c0.03-0.52,0.28-0.76,0.82-0.61C588.89,857.87,588.61,858.08,588.31,858.24z"/>
<path class="st1" d="M683.66,860.53c0.69,0.03,1.19,0.3,1.3,1.03C684.53,861.22,684.1,860.88,683.66,860.53z"/>
<path class="st1" d="M582.24,862.81c0.08-0.63,0.46-0.89,1.07-0.87C582.95,862.23,582.6,862.52,582.24,862.81z"/>
<path class="st1" d="M656.88,840.49l0.5-0.01c0,0,0.15,0.48,0.15,0.48C657.31,840.81,657.09,840.65,656.88,840.49z"/>
<path class="st1" d="M626.87,829.46c-0.02-0.53,0.21-0.73,0.73-0.55C627.37,829.12,627.13,829.3,626.87,829.46z"/>
<path class="st0" d="M1307.79,1162.03c-0.27-0.05-0.54-0.11-0.82-0.16c0.59-0.89,0.55-0.01,0.74,0.25
	C1307.71,1162.12,1307.79,1162.03,1307.79,1162.03z"/>
<path class="st4" d="M644.88,1803.01c-0.91-0.42-0.68-0.95-0.16-1.52C645.04,1801.96,645.1,1802.47,644.88,1803.01z"/>
<path class="st1" d="M613.17,1809.87c1.55,0.27,2.49,1.33,3.28,2.57C614.53,1812.64,613.38,1811.85,613.17,1809.87z"/>
<path class="st1" d="M604.07,1810.75c0.14-0.78,0.69-1.02,1.39-1.09C605.26,1810.36,604.7,1810.6,604.07,1810.75z"/>
<path class="st1" d="M610.58,1807.69c0,0-0.11-0.1-0.11-0.11C610.48,1807.59,610.58,1807.69,610.58,1807.69z"/>
<path class="st1" d="M611.32,1808.54c0.64,0.11,1.12,0.43,1.37,1.05C612.02,1809.51,611.55,1809.18,611.32,1808.54z"/>
<path class="st1" d="M602.93,1811.63c-0.02-0.44,0.17-0.61,0.6-0.46C603.34,1811.34,603.14,1811.49,602.93,1811.63z"/>
</svg>
