<svg xmlns="http://www.w3.org/2000/svg" width="171.005" height="166.849" viewBox="0 0 171.005 166.849">
  <g id="Logo2" transform="translate(-1605.386 263)">
    <path id="Caminho_218" data-name="Caminho 218" d="M161,1117.159a.765.765,0,0,0,.858-.237,4.545,4.545,0,0,1,1.453-1,3.724,3.724,0,0,1,2.464-.11,4.227,4.227,0,0,0,.936.167,3.617,3.617,0,0,1,1.864.328,1.209,1.209,0,0,0,.588.079,3.875,3.875,0,0,1,1.765.249,22.76,22.76,0,0,1,3.315.433,6.306,6.306,0,0,1,1.649.254,1.9,1.9,0,0,0,.711.072,3.354,3.354,0,0,1,1.75.315.974.974,0,0,0,.466.088,5.054,5.054,0,0,1,2.121.3c1.249-.128,2.439.42,3.686.329a1.365,1.365,0,0,1,.808.174,1.154,1.154,0,0,0,.559.2,6.89,6.89,0,0,1,2.581.427c1.212-.146,2.357.452,3.567.326.546-.057.948.4,1.491.4a3.718,3.718,0,0,1,1.542.138.538.538,0,0,0,.221.087c1.293-.064,2.513.42,3.789.482a4.78,4.78,0,0,1,1.183.177,2.432,2.432,0,0,0,.7.138,3.668,3.668,0,0,1,1.868.332.415.415,0,0,0,.231.056c1.13-.137,2.2.355,3.315.326a2.017,2.017,0,0,1,1.055.169,1.612,1.612,0,0,0,.823.118,4.323,4.323,0,0,1,2.75.979,2.851,2.851,0,0,1,1.185,1.847,34.405,34.405,0,0,0,1.682,4.765,25.155,25.155,0,0,0,4.249,5.822,23.939,23.939,0,0,0,4.119,3.24,3.318,3.318,0,0,1,1.742,3.158,9.142,9.142,0,0,1-.251,2.229,2.625,2.625,0,0,0-.093.822,3.894,3.894,0,0,1-.28,1.622,1.265,1.265,0,0,0-.132.452,13.969,13.969,0,0,1-.307,2.8,8.072,8.072,0,0,1-.342,2.083,2.072,2.072,0,0,0-.049.821,5.1,5.1,0,0,1-.165,1.408,3.818,3.818,0,0,0-.1.937,3.479,3.479,0,0,1-.2,1.4,1.439,1.439,0,0,0-.1.579,7.725,7.725,0,0,1-.392,2.685,2.521,2.521,0,0,0-.062.822,2.839,2.839,0,0,1-.264,1.384.666.666,0,0,0-.111.334c.085,1.115-.332,2.179-.326,3.284a2.242,2.242,0,0,1-.179,1.158.475.475,0,0,0-.068.224,22.056,22.056,0,0,1-.313,3.167,8.8,8.8,0,0,1-.21,1.52,4.861,4.861,0,0,0-.221,1.519.81.81,0,0,1-.025.235,26.14,26.14,0,0,0-.6,3.589c-.041.311-.08.625-.093.938a3.484,3.484,0,0,1-.254,1.738,20.1,20.1,0,0,1-.384,3.156c-.1.658-.144,1.322-.276,1.983-.192.961-.239,1.95-.351,2.929a3.988,3.988,0,0,1-1.839,3.042,15,15,0,0,1-1.567.571.732.732,0,0,1-.466-.029c-.839-.243-1.68-.484-2.511-.752-2.156-.7-4.261-1.524-6.356-2.377-.959-.392-1.874-.888-2.808-1.341-.216-.1-.421-.232-.637-.334a61.771,61.771,0,0,1-8.746-5.138,62.933,62.933,0,0,1-7.117-5.622,69.416,69.416,0,0,1-5.583-5.542c-1.75-2-3.439-4.052-5.012-6.185a69.144,69.144,0,0,1-5.253-8.333,48.19,48.19,0,0,1-2.13-4.368c-.588-1.419-1.251-2.806-1.876-4.21-.078-.178-.126-.369-.19-.552-.383-1.116-.724-2.249-1.167-3.342a28.493,28.493,0,0,1-.814-2.818,12,12,0,0,0-.6-2.138,5.613,5.613,0,0,1-.46-1.709c-.105-.74-.254-1.481-.412-2.2a12.741,12.741,0,0,0-.542-3,2.391,2.391,0,0,1-.091-.816c-.025-.316-.023-.633-.064-.945a.721.721,0,0,0-.715-.674Q161,1122.972,161,1117.159Z" transform="translate(1444.396 -1289.719)" fill="#4695c8"/>
    <path id="Caminho_219" data-name="Caminho 219" d="M591.743,884.3a5.529,5.529,0,0,1-1.528-.274,2.437,2.437,0,0,0-.7-.115,2.808,2.808,0,0,1-.359-.009c-1.194-.311-2.437-.319-3.635-.606a1.246,1.246,0,0,0-.231-.06,11.681,11.681,0,0,1-2.833-.353c-.713-.189-1.5-.084-2.235-.34a2.546,2.546,0,0,0-.835-.049,2.938,2.938,0,0,1-1.058-.165,4.253,4.253,0,0,0-1.649-.245,2,2,0,0,1-.827-.091,4.065,4.065,0,0,0-1.65-.219,1.085,1.085,0,0,1-.474-.037,6.9,6.9,0,0,0-2.327-.392c-.748-.138-1.509-.143-2.237-.289a3.672,3.672,0,0,1-3.045-2.666,26.929,26.929,0,0,0-1.379-3.994,26.505,26.505,0,0,0-3.1-5.03,22.131,22.131,0,0,0-4.34-4.047c-.318-.235-.662-.435-1-.643a4.613,4.613,0,0,1-1.1-.907,3.379,3.379,0,0,1-.99-2.571,6.693,6.693,0,0,1,.39-2.32,1.82,1.82,0,0,0,.127-.69,4.592,4.592,0,0,1,.276-1.858,2.53,2.53,0,0,0,.08-.934,3.6,3.6,0,0,1,.2-1.394,2.26,2.26,0,0,0,.091-.814,4.6,4.6,0,0,1,.21-1.75,2.187,2.187,0,0,0,.066-.819,3.431,3.431,0,0,1,.19-1.4.539.539,0,0,0,.06-.229,32,32,0,0,1,.392-3.28,2.524,2.524,0,0,1,.06-.588c.39-1.285.392-2.635.677-3.936a3.861,3.861,0,0,0,.062-.7,3.787,3.787,0,0,1,.241-1.74,1.268,1.268,0,0,0,.045-.584,4.146,4.146,0,0,1,.28-1.857.692.692,0,0,0,.068-.344c-.126-1.2.416-2.327.342-3.517a.7.7,0,0,1,.068-.224c.439-.219.456-.282.175-.7.029-.163.058-.328.087-.491.462-.359.487-.581.13-1.18-.024-.42-.136-.857.266-1.183a.72.72,0,0,0,.707-.608.123.123,0,0,1,.134-.123l-.015-.006.356-.225c.075-.06.149-.12.221-.18l.049-.045c.332-.006.656-.02.674-.468a.374.374,0,0,1,.307-.25.871.871,0,0,0,.169-.126l.031-.081.086-.01c.4-.033.757-.119.821-.6a1.552,1.552,0,0,1,.823-.613.583.583,0,0,0,.161-.134l.027-.076.081-.01a.438.438,0,0,0,.373-.258l.006,0c.235-.008.421-.083.453-.349,0-.08.037-.119.12-.119.328,0,.621-.04.627-.462l.021-.016c.206-.011.381-.064.439-.291l-.027.014a.64.64,0,0,0,.786-.606l.062-.047c.326-.017.639-.048.647-.48a1.026,1.026,0,0,1,.633-.5l0-.01.338-.22.229-.184.05-.038c.334-.008.661-.029.67-.48a.361.361,0,0,1,.321-.241,1.178,1.178,0,0,0,.151-.113.105.105,0,0,1,.134-.106c.157-.039.3-.1.348-.27a1.564,1.564,0,0,1,.668-.6.45.45,0,0,1,.615.118l-.027-.027.21.235a.38.38,0,0,0,.344.26l.083,0,.037.072a.654.654,0,0,0,.823.637.4.4,0,0,1,.377.284c.013.437.332.462.658.475l.064.049.225.169a.693.693,0,0,1,.518.41c.059.233.237.293.451.3l.016.01a.426.426,0,0,0,.34.256.126.126,0,0,1,.15.117c.043.034.089.066.134.1a.414.414,0,0,1,.328.262c.052.582.442.707.945.687l.029.022a.339.339,0,0,0,.28.217.753.753,0,0,1,.464.367c.062.482.419.573.821.6l.086.014.031.083a1.7,1.7,0,0,0,.157.12.371.371,0,0,1,.32.243c.014.449.34.466.674.472l.051.043c.074.06.148.119.223.181.116.074.231.149.349.223l-.006.007a1.038,1.038,0,0,1,.641.488c.09.071.179.143.27.213l-.012-.016a.362.362,0,0,0,.379.274c.107.086.214.171.32.257a.64.64,0,0,0,.425.629.345.345,0,0,0,.421-.1.867.867,0,0,0,.066-.773c-.046-.171-.21-.21-.361-.251-.091-.218-.2-.431-.273-.656-.715-2.218-1.439-4.433-2.121-6.659a2.969,2.969,0,0,1-.308-1.484.586.586,0,0,1,.573.006,8.224,8.224,0,0,1,1.173.584,88.145,88.145,0,0,1,9.727,7.092,73.024,73.024,0,0,1,6.274,6.022c1.3,1.443,2.585,2.894,3.771,4.438,1.328,1.73,2.62,3.48,3.822,5.294a73.1,73.1,0,0,1,4.839,8.561c.79,1.633,1.389,3.348,2.233,4.954a2.727,2.727,0,0,1,.256.66,18.971,18.971,0,0,0,1.42,3.725c.037.479-.323.907-.184,1.4-.111.114-.1-.1-.092.054a.122.122,0,0,0,.031.07c.1-.018.113-.068.035-.14.146.2.334.066.505.064a16.424,16.424,0,0,1,.73,2.956c.668,1.151.563,2.521,1.076,3.715-.066.837.352,1.61.336,2.441a1.733,1.733,0,0,0,.136.81,2.167,2.167,0,0,1,.142.93,4.706,4.706,0,0,0,.2,1.753,2.293,2.293,0,0,1,.053.82c0,3.359-.029,6.719.021,10.076a1.955,1.955,0,0,1-1.124,1.911,3.418,3.418,0,0,1-3.093.394,3.52,3.52,0,0,0-1.173-.188,3.476,3.476,0,0,1-1.526-.237,30.416,30.416,0,0,1-3.422-.449,3.574,3.574,0,0,1-1.173-.192,1.886,1.886,0,0,0-.823-.118,6.378,6.378,0,0,1-2.126-.3,4.258,4.258,0,0,1-.449-1.091.756.756,0,0,1,.3-1.026c.583-.415,1.15-.851,1.726-1.281q2.489-1.852,4.979-3.708a.554.554,0,0,0,.157-.173.3.3,0,0,0,.045-.214.236.236,0,0,0-.173-.128c-.278-.017-.559-.017-.839-.017-2.48,0-4.96.006-7.441,0-.829,0-.858-.035-1.095-.788q-.888-2.826-1.767-5.653c-.142-.452-.255-.916-.439-1.351-.169-.4-.078-.94-.579-1.187a22.888,22.888,0,0,0-.913,2.528c-.015.037-.019.076-.031.115-.608,1.92-1.227,3.839-1.82,5.763a.7.7,0,0,1-.773.575c-.28-.008-.561,0-.839,0H585.4c-.239,0-.48-.008-.72,0a.279.279,0,0,0-.192.105c-.072.115,0,.225.089.3.15.128.315.241.476.359q3.151,2.359,6.309,4.715C591.611,883.805,591.8,883.978,591.743,884.3Z" transform="translate(1132.254 -1053.895)" fill="#4695c8"/>
    <path id="Caminho_220" data-name="Caminho 220" d="M227.681,834.082a27.431,27.431,0,0,0-3.026,4.245,3.139,3.139,0,0,1-2.866,1.643,6.412,6.412,0,0,1-2.369-.274,1.582,1.582,0,0,0-.592-.066,4.274,4.274,0,0,1-1.88-.287,1.561,1.561,0,0,0-.59-.084,4.232,4.232,0,0,1-1.765-.249,1.6,1.6,0,0,0-.594-.058,3.964,3.964,0,0,1-1.767-.239,1.263,1.263,0,0,0-.472-.062,3.431,3.431,0,0,0-.48,0c-.7.052-1.311-.353-1.99-.4a5.035,5.035,0,0,1-2-.291,1.825,1.825,0,0,0-.7-.122,4.831,4.831,0,0,1-1.88-.284,1.475,1.475,0,0,0-.594-.053,3.651,3.651,0,0,1-1.87-.293.227.227,0,0,0-.115-.029c-1.045.017-2.049-.293-3.078-.367a6.293,6.293,0,0,1-1.414-.219,4.227,4.227,0,0,0-1.419-.2,1.779,1.779,0,0,1-.711-.064,4.869,4.869,0,0,0-1.889-.243.812.812,0,0,1-.357-.029c-1.058-.569-2.3-.171-3.379-.629a1.544,1.544,0,0,0-.6-.045,4.041,4.041,0,0,1-1.647-.237,2.364,2.364,0,0,0-.823-.151,5.119,5.119,0,0,1-1.771-.256,3.053,3.053,0,0,0-.831-.078,2.589,2.589,0,0,1-.831-.066,7.953,7.953,0,0,0-2.348-.367c-.827-.115-1.66-.2-2.48-.317a17.908,17.908,0,0,1-2.091-.415,3.5,3.5,0,0,1-2.53-4.408,17.454,17.454,0,0,0,.522-2.173,13.4,13.4,0,0,1,.728-2.113c.153-.445.379-.87.505-1.322a31.952,31.952,0,0,1,1.381-3.643c.849-2.043,1.81-4.031,2.835-5.987a64.974,64.974,0,0,1,4.29-7.1c.771-1.1,1.5-2.23,2.356-3.274.924-1.136,1.724-2.365,2.752-3.422.5-.511.944-1.07,1.4-1.616a54.326,54.326,0,0,1,4.47-4.459,60.1,60.1,0,0,1,6.333-5.255,81.08,81.08,0,0,1,6.9-4.489c1.559-.889,3.171-1.663,4.76-2.484a42.3,42.3,0,0,1,4.043-1.771q2.771-1.086,5.593-2.045c.973-.332,1.992-.528,2.983-.814,1.408-.406,2.891-.487,4.28-.98a4.147,4.147,0,0,1,.594-.062c1.091-.2,2.183-.386,3.276-.567a6.6,6.6,0,0,1,1.06-.134c3.125,0,6.251.014,9.374-.012a1.962,1.962,0,0,1,1.656.777,3.922,3.922,0,0,1,.839,3.556,7.1,7.1,0,0,0-.208,1.278,8.253,8.253,0,0,1-.2,1.287,6.917,6.917,0,0,0-.245,1.992,1.362,1.362,0,0,1-.049.587,5.724,5.724,0,0,0-.295,2.212,2.259,2.259,0,0,1-.128.573c-.043.15-.163.3-.157.443.056,1.114-.318,2.181-.33,3.284a3.074,3.074,0,0,1-.206,1.394,1.119,1.119,0,0,0-.1.46,38.63,38.63,0,0,1-.684,4.909c-.039.233-.052.47-.068.707a2.248,2.248,0,0,1-.012.472c-.363,1.214-.291,2.492-.569,3.719a3.116,3.116,0,0,0-.074.584,4.415,4.415,0,0,1-.264,1.973,1.034,1.034,0,0,0-.047.468,13.168,13.168,0,0,1-.2,1.757c-.159,1.412-.46,2.8-.654,4.2-.134.969-.225,1.954-.322,2.932-.085.851-.262,1.7-.264,2.566-.532,1.014-.2,2.189-.61,3.229a1.992,1.992,0,0,0-.056.7,4.779,4.779,0,0,1-.171,1.4,3.842,3.842,0,0,0-.12,1.056,5.337,5.337,0,0,1-.369,1.719,3.828,3.828,0,0,1-2.631,2.366c-.487.167-1,.254-1.493.406a18.254,18.254,0,0,0-3.552,1.675,14.376,14.376,0,0,0-2.666,1.806,2.945,2.945,0,0,1-.507.311,2.9,2.9,0,0,1-.217-.42c-.561-1.771-1.113-3.546-1.672-5.319-.381-1.206-.771-2.41-1.155-3.616-.287-.907-.295-.922.449-1.487q2.9-2.2,5.822-4.387c1.53-1.146,3.068-2.282,4.6-3.431.136-.1.381-.182.258-.449a1.533,1.533,0,0,0-.934-.1q-5.888-.01-11.776,0c-.32,0-.641-.007-.961,0a.669.669,0,0,1-.693-.534c-.2-.6-.42-1.194-.61-1.8q-1.769-5.662-3.526-11.329a.516.516,0,0,0-.1-.212.2.2,0,0,0-.305,0,.936.936,0,0,0-.173.3q-1.732,5.548-3.457,11.1c-.2.641-.433,1.274-.631,1.915a.716.716,0,0,1-.8.563c-.28-.01-.561,0-.841,0q-5.829,0-11.657,0a8.606,8.606,0,0,0-.957.042.165.165,0,0,0-.12.264,2.631,2.631,0,0,0,.435.394q4.54,3.408,9.082,6.812c.478.359.948.726,1.433,1.078a.705.705,0,0,1,.285.833c-.041.153-.082.305-.13.456q-1.979,6.281-3.961,12.562c-.056.177-.208.351-.012.623a15.114,15.114,0,0,0,1.831-1.278q4.636-3.476,9.267-6.958c.474-.356.565-.358,1.047,0q3.835,2.855,7.657,5.721A4.544,4.544,0,0,1,227.681,834.082Z" transform="translate(1434.247 -1019.582)" fill="#4695c8"/>
    <path id="Caminho_221" data-name="Caminho 221" d="M516.46,1205.765a7.462,7.462,0,0,1,.252-2.34,2.8,2.8,0,0,0,.037-.942,2.448,2.448,0,0,1,.2-1.271.232.232,0,0,0,.039-.112c-.074-1.235.485-2.392.47-3.619a4.014,4.014,0,0,1,.2-1.4,2.14,2.14,0,0,0,.114-.694,5.748,5.748,0,0,1,.385-1.843,3.249,3.249,0,0,1,2.379-2.138,21.863,21.863,0,0,0,8.094-4.143,19.9,19.9,0,0,0,4.078-4.45c.462-.689.886-1.4,1.363-2.08a3.215,3.215,0,0,1,2.6-1.451,4.827,4.827,0,0,1,2.468.333.459.459,0,0,0,.231.06c1.13-.117,2.2.391,3.319.326a2.234,2.234,0,0,1,1.056.165,1.782,1.782,0,0,0,.7.117,4.257,4.257,0,0,1,1.989.328,1.285,1.285,0,0,0,.59.078,4.2,4.2,0,0,1,1.878.3,1.91,1.91,0,0,0,.7.111,5.242,5.242,0,0,1,1.771.245,3.5,3.5,0,0,0,.95.068,4.284,4.284,0,0,1,1.532.224,1.947,1.947,0,0,0,.707.091,2.543,2.543,0,0,1,1.507.276.417.417,0,0,0,.229.067,21.118,21.118,0,0,1,3.305.447,7.527,7.527,0,0,1,1.649.262,3.134,3.134,0,0,0,.831.071,2.5,2.5,0,0,1,.715.043,6.129,6.129,0,0,0,2.466.38c1.091.449,2.309.117,3.407.547a2.356,2.356,0,0,0,.715.048c.2.005.4-.007.6.01.6.045,1.1.482,1.736.4a3.464,3.464,0,0,1,1.643.26,1,1,0,0,0,.345.1,20.232,20.232,0,0,1,2.963.33,7.064,7.064,0,0,1,1.76.276,2.429,2.429,0,0,0,.833.056,2.566,2.566,0,0,1,1.173.2,1.466,1.466,0,0,0,.813.163,2.951,2.951,0,0,1,2.268.91,3.347,3.347,0,0,1,1.152,3.5,64.443,64.443,0,0,1-2.01,6.392c-.769,2.156-1.74,4.222-2.7,6.3a68.172,68.172,0,0,1-4.206,7.687c-.928,1.476-1.934,2.9-2.964,4.306-.821,1.118-1.6,2.275-2.524,3.3-1.67,1.859-3.247,3.8-5.053,5.544a86.966,86.966,0,0,1-8.432,7.181c-.573.426-1.2.787-1.8,1.179a5.231,5.231,0,0,1-.565-1.429q-1.9-6-3.789-12c-.383-1.219-.392-1.229.6-1.987,1.078-.822,2.177-1.613,3.263-2.422q5.082-3.786,10.158-7.574a2.443,2.443,0,0,0,.408-.421.233.233,0,0,0-.056-.19,7.155,7.155,0,0,0-.833-.063q-8.056,0-16.11,0c-.28,0-.561-.006-.841,0a.686.686,0,0,1-.72-.51c-.268-.785-.548-1.568-.8-2.36-.594-1.887-1.169-3.776-1.759-5.663q-1.395-4.475-2.8-8.946a1.621,1.621,0,0,0-.128-.329.339.339,0,0,0-.179-.13.231.231,0,0,0-.285.154,4.741,4.741,0,0,0-.188.559c-.309,1.023-.606,2.048-.926,3.068q-1.386,4.417-2.783,8.827c-.488,1.546-.984,3.09-1.47,4.638a.849.849,0,0,1-.961.7c-.12-.01-.242,0-.361,0q-8.115,0-16.229-.006A2.713,2.713,0,0,1,516.46,1205.765Z" transform="translate(1162.213 -1340.213)" fill="#4695c8"/>
    <path id="Caminho_222" data-name="Caminho 222" d="M515.819,1239.112a2.752,2.752,0,0,0,1.183.108q8.115.008,16.23.006c.12,0,.242-.008.361,0a.852.852,0,0,0,.961-.7c.487-1.548.981-3.092,1.47-4.638q1.395-4.413,2.783-8.827c.32-1.018.616-2.044.926-3.067a4.864,4.864,0,0,1,.188-.559.23.23,0,0,1,.284-.155.335.335,0,0,1,.179.13,1.587,1.587,0,0,1,.128.33q1.4,4.473,2.8,8.947c.587,1.886,1.165,3.779,1.758,5.663.25.792.528,1.575.8,2.361a.683.683,0,0,0,.719.51c.281-.006.561,0,.842,0q8.056,0,16.11,0a6.8,6.8,0,0,1,.833.063.234.234,0,0,1,.056.19,2.5,2.5,0,0,1-.408.421q-5.075,3.791-10.158,7.574c-1.086.808-2.185,1.6-3.264,2.422-1,.757-.988.77-.6,1.987q1.892,6,3.789,12a5.2,5.2,0,0,0,.565,1.428c.328,1.052.657,2.1.975,3.159a.4.4,0,0,1-.078.323.3.3,0,0,1-.427.015c-.666-.5-1.322-1.017-1.987-1.521-.252-.192-.517-.363-.777-.545a26.927,26.927,0,0,0-3-2.344c-1.385-1.07-2.8-2.1-4.2-3.151s-2.794-2.108-4.2-3.153c-.429-.319-.583-.307-1.062.049-1.307.978-2.606,1.963-3.913,2.939-2.55,1.905-5.109,3.8-7.657,5.706-.668.5-1.311,1.033-1.975,1.54a4.324,4.324,0,0,1-.705.444.175.175,0,0,1-.233-.181,9.737,9.737,0,0,1,.275-1.025c.6-1.882,1.223-3.759,1.816-5.643.821-2.6,1.62-5.206,2.435-7.808.26-.831.5-1.667.81-2.478a1.209,1.209,0,0,0-.542-1.608c-.786-.544-1.532-1.14-2.3-1.714q-4.488-3.364-8.977-6.729c-.8-.6-1.618-1.159-2.425-1.74a.983.983,0,0,0-.548-.207A.621.621,0,0,1,515.819,1239.112Z" transform="translate(1162.853 -1373.56)" fill="#fbd304"/>
    <path id="Caminho_223" data-name="Caminho 223" d="M814.244,884.13c-.171,0-.359.134-.505-.064l.027.019c-.14-.493.221-.921.184-1.4q.825-2.6,1.649-5.193,1.046-3.275,2.095-6.546c.233-.729.19-.839-.427-1.295q-4.221-3.126-8.441-6.257-.863-.64-1.709-1.3c-.271-.212-.52-.451-.767-.67.173-.287.39-.19.575-.19q6.367,0,12.737.009c.119,0,.241,0,.361,0,.65-.027.736-.068.94-.7.589-1.843,1.158-3.69,1.738-5.536q1.191-3.785,2.391-7.567a.444.444,0,0,1,.2-.264c.227-.093.262.128.3.256q.522,1.574,1.024,3.154,1.166,3.668,2.325,7.342c.285.9.573,1.806.845,2.713a.787.787,0,0,0,.879.614c2.923-.016,5.849-.006,8.772-.01q2.161,0,4.325-.014c.2,0,.4-.043.538.179-.177.373-.563.538-.868.769-1.744,1.319-3.509,2.61-5.261,3.922q-2.391,1.787-4.769,3.591c-.551.417-.588.516-.375,1.214.355,1.171.726,2.338,1.1,3.507q1.5,4.744,3.01,9.486a.744.744,0,0,1,.052.229.3.3,0,0,1-.064.211.229.229,0,0,1-.212.022,7.808,7.808,0,0,1-.695-.458q-2.866-2.146-5.727-4.3c-1.3-.981-2.589-1.988-3.907-2.95-1.386-1.015-1.089-.963-2.45-.01-1.6,1.12-3.115,2.344-4.676,3.513-1.495,1.122-3,2.231-4.5,3.352C814.708,883.691,814.483,883.92,814.244,884.13Z" transform="translate(932.089 -1076.573)" fill="#ffd504"/>
    <path id="Caminho_224" data-name="Caminho 224" d="M329.168,925.073a5.067,5.067,0,0,0-.577-.594q-3.823-2.87-7.657-5.721c-.482-.359-.573-.357-1.047,0q-4.636,3.476-9.267,6.958a15.106,15.106,0,0,1-1.831,1.279c-.194-.27-.043-.446.012-.623q1.979-6.281,3.961-12.562c.047-.151.089-.3.13-.456a.707.707,0,0,0-.285-.833c-.482-.352-.955-.719-1.433-1.078q-4.54-3.4-9.082-6.812a2.408,2.408,0,0,1-.435-.394.166.166,0,0,1,.12-.264,8.723,8.723,0,0,1,.957-.042q5.829,0,11.657,0c.28,0,.561-.008.841,0a.715.715,0,0,0,.8-.563c.2-.644.431-1.274.631-1.915q1.732-5.548,3.458-11.1a.943.943,0,0,1,.173-.306.2.2,0,0,1,.305,0,.516.516,0,0,1,.1.212q1.763,5.665,3.526,11.329c.188.6.414,1.2.61,1.8a.669.669,0,0,0,.693.534c.319,0,.641,0,.961,0q5.888,0,11.776,0a1.535,1.535,0,0,1,.934.1c.124.268-.122.346-.258.449-1.528,1.148-3.066,2.284-4.6,3.431q-2.916,2.187-5.822,4.387c-.744.565-.736.58-.45,1.487.381,1.206.773,2.41,1.155,3.616.559,1.773,1.111,3.546,1.672,5.319a2.752,2.752,0,0,0,.216.42q.507,1.614,1.01,3.231a1.726,1.726,0,0,1,.105.445c0,.122-.132.231-.235.165-.462-.3-.913-.612-1.355-.938A6.677,6.677,0,0,0,329.168,925.073Z" transform="translate(1332.759 -1110.572)" fill="#fbd304"/>
    <path id="Caminho_225" data-name="Caminho 225" d="M565.617,715.8a.694.694,0,0,0-.517-.41.181.181,0,0,0-.225-.169l-.064-.049a.771.771,0,0,0-.658-.474.406.406,0,0,0-.38-.285,1.235,1.235,0,0,0-.823-.637l-.037-.072-.082,0a.414.414,0,0,0-.342-.259l-.21-.235.027.026a.45.45,0,0,0-.614-.117,1.539,1.539,0,0,0-.668.6c-.173.017-.313.078-.349.27a.105.105,0,0,0-.134.1c-.107-.037-.154,0-.15.113a.359.359,0,0,0-.322.242.926.926,0,0,0-.67.48s-.05.037-.05.035c-.134-.008-.216.045-.229.184-.114.074-.225.146-.336.22l-.016-.039.015.05a1.025,1.025,0,0,0-.633.5.81.81,0,0,0-.647.48l-.062.048a1.041,1.041,0,0,0-.785.606l.026-.014a.445.445,0,0,0-.439.29l-.021.017a.717.717,0,0,0-.627.462c-.083,0-.122.037-.12.119a.6.6,0,0,0-.454.348l-.006,0c-.182,0-.33.06-.373.258l-.081.01-.027.076c-.113-.025-.167.018-.161.134a1.55,1.55,0,0,0-.823.612,1.134,1.134,0,0,0-.82.6l-.087.01-.031.08c-.111-.033-.163.017-.169.126a.374.374,0,0,0-.307.249.9.9,0,0,0-.674.468l-.049.045a.187.187,0,0,0-.221.179c-.12.074-.237.148-.356.225l.008-.031.006.037a.123.123,0,0,0-.134.124c-.21-.053-.377-.169-.336-.4a6,6,0,0,1,.214-.794q1.434-4.555,2.874-9.109c.332-1.049.658-2.1.985-3.152.087-.274.13-.563-.13-.759a3.727,3.727,0,0,0-1.484-.944,11.233,11.233,0,0,0-2.113-1.732c-1.353-1.045-2.732-2.057-4.1-3.08-.957-.713-1.928-1.412-2.878-2.134-.243-.185-.7-.373-.614-.645.13-.412.619-.191.942-.193,4.045-.015,8.09-.008,12.137-.01,1.142,0,1.148,0,1.488-1.093q1.887-6.049,3.765-12.1c.082-.264.156-.531.264-.787a.442.442,0,0,1,.243-.223c.153-.045.192.1.227.212.592,1.923,1.173,3.851,1.777,5.771q1.191,3.785,2.414,7.56c.2.629.247.656.942.658q6.188.006,12.376,0a3.534,3.534,0,0,1,1.149.07c-.068.386-.34.509-.548.666-2.391,1.786-4.791,3.559-7.185,5.342-1.084.808-2.157,1.633-3.241,2.441a.791.791,0,0,0-.3,1.027c.4,1.156.753,2.33,1.13,3.495.021.066.1.115.157.171-.13.14-.187.274.042.377,0,0,0-.025,0-.023a2.975,2.975,0,0,0,.307,1.484c.683,2.227,1.406,4.443,2.122,6.659.072.225.179.437.272.656-.088.493-.088.493-.55.493-.107-.087-.214-.171-.32-.258a.365.365,0,0,0-.379-.274l.012.017a.241.241,0,0,0-.268-.213,1.046,1.046,0,0,0-.641-.489l.012-.043-.006.037-.346-.223a.189.189,0,0,0-.223-.181l-.051-.043a.9.9,0,0,0-.675-.472.365.365,0,0,0-.317-.243c0-.107-.052-.148-.159-.12l-.031-.083-.087-.014a1.148,1.148,0,0,0-.821-.6.746.746,0,0,0-.464-.367c0-.194-.126-.221-.28-.217l-.029-.023a1.49,1.49,0,0,0-.944-.687.414.414,0,0,0-.328-.262l-.031-.1-.1,0a.127.127,0,0,0-.151-.118c-.031-.192-.163-.253-.34-.255l-.017-.01A.54.54,0,0,0,565.617,715.8Z" transform="translate(1141.049 -947.279)" fill="#ffd504"/>
    <path id="Caminho_226" data-name="Caminho 226" d="M708.283,1079.039c.055-.321-.132-.494-.373-.674q-3.161-2.346-6.309-4.715c-.159-.119-.323-.231-.476-.358-.089-.075-.161-.186-.089-.3a.261.261,0,0,1,.191-.105c.239-.012.48,0,.72,0h6.962c.281,0,.561-.008.839,0a.7.7,0,0,0,.773-.575c.594-1.926,1.212-3.844,1.821-5.763.012-.037.016-.078.031-.115a22.96,22.96,0,0,1,.913-2.528c.5.248.41.784.579,1.188.184.435.3.9.439,1.35q.884,2.827,1.767,5.654c.237.753.266.785,1.095.788,2.48.008,4.96,0,7.441,0,.281,0,.561,0,.839.017a.242.242,0,0,1,.173.128.319.319,0,0,1-.045.214.571.571,0,0,1-.157.173q-2.487,1.856-4.979,3.709c-.575.427-1.142.864-1.726,1.28a.759.759,0,0,0-.3,1.028,4.215,4.215,0,0,0,.449,1.091c.678,2.179,1.369,4.356,2.023,6.541.091.307.487.693.12.955-.281.2-.557-.223-.8-.4-1.379-1.006-2.736-2.045-4.1-3.067-.732-.546-1.48-1.073-2.2-1.629a.781.781,0,0,0-1.074-.023c-.668.5-1.361.964-2.027,1.466-1.235.932-2.459,1.878-3.688,2.82a2.563,2.563,0,0,1-.387.278c-.348.18-.575.557-1.008.593-.287-.45.068-.834.179-1.21.709-2.379,1.47-4.743,2.21-7.115C708.174,1079.5,708.223,1079.268,708.283,1079.039Z" transform="translate(1015.713 -1248.635)" fill="#fbd304"/>
    <path id="Caminho_227" data-name="Caminho 227" d="M494.083,1348.108a.42.42,0,0,0-.187-.506,3.859,3.859,0,0,1-1.295-1.943,2.8,2.8,0,0,1-.045-1.849,5.767,5.767,0,0,0,.282-1.505,7.565,7.565,0,0,1,.336-2.095,3.3,3.3,0,0,0,.1-.934,2.776,2.776,0,0,1,.192-1.156.683.683,0,0,0,.1-.336c-.117-1.153.3-2.256.293-3.4a2.226,2.226,0,0,1,.173-1.156.251.251,0,0,0,.037-.112c-.037-1.19.375-2.323.447-3.5a4.6,4.6,0,0,1,.233-1.395,4.222,4.222,0,0,0,.254-1.5,3.232,3.232,0,0,1,.214-1.509.43.43,0,0,0,.054-.228c-.12-1.15.348-2.247.311-3.391a1.485,1.485,0,0,1,.06-.7,4.331,4.331,0,0,0,.3-2.083.37.37,0,0,1,0-.117,10.909,10.909,0,0,0,.406-2.787c.155-1.6.627-3.166.641-4.786a1.881,1.881,0,0,1,.214-.792.98.98,0,0,1,.548.207c.806.583,1.629,1.147,2.425,1.739q4.494,3.357,8.976,6.73c.765.573,1.511,1.169,2.3,1.713a1.208,1.208,0,0,1,.542,1.608c-.311.81-.55,1.649-.81,2.479-.814,2.6-1.614,5.207-2.435,7.807-.594,1.885-1.214,3.761-1.816,5.643a9.723,9.723,0,0,0-.274,1.024.174.174,0,0,0,.233.182,4.278,4.278,0,0,0,.705-.443c.664-.507,1.307-1.039,1.975-1.54q3.822-2.86,7.657-5.707c1.307-.975,2.606-1.962,3.913-2.937.476-.357.633-.37,1.062-.05,1.4,1.045,2.8,2.1,4.2,3.152s2.816,2.083,4.2,3.153a26.617,26.617,0,0,1,3,2.344,4.936,4.936,0,0,1-1.123.877,82.083,82.083,0,0,1-7.412,3.857,39.149,39.149,0,0,1-5.655,2.207c-.837.224-1.635.588-2.464.849a34.834,34.834,0,0,1-4.8,1.3c-.9.149-1.767.469-2.662.639a14.566,14.566,0,0,1-3.895.468c-.07.04-.14.081-.21.119,0,.118,0,.238-.006.355h-.48a1.383,1.383,0,0,0-.4-.214,6.148,6.148,0,0,0-.833-.023c-2.664,0-5.325-.005-7.989,0-.381,0-.806-.129-1.118.232Z" transform="translate(1181.297 -1444.259)" fill="#0092bd"/>
  </g>
</svg>
