<svg xmlns="http://www.w3.org/2000/svg" width="97.89" height="97.89" viewBox="0 0 97.89 97.89">
  <g id="medic" transform="translate(-38.53 -119.52)">
    <path id="Caminho_110" data-name="Caminho 110" d="M87.5,217.41c-27.37-.23-49-21.82-48.97-48.99a48.945,48.945,0,0,1,97.89.08C136.38,195.96,114.5,217.18,87.5,217.41Zm.05-95.25c-25.6-.52-46.53,20.98-46.58,46.09a46.455,46.455,0,1,0,92.91.24C133.96,142.72,112.85,121.84,87.55,122.16Z" fill="#b2b2b2"/>
    <path id="Caminho_111" data-name="Caminho 111" d="M87.52,133.19c4.6,0,9.19.04,13.79-.03,1.2-.02,1.44.39,1.43,1.5-.05,5.6,0,11.19-.05,16.79-.01,1.1.31,1.45,1.43,1.44,5.68-.05,11.35,0,17.03-.05,1.01-.01,1.27.31,1.27,1.29q-.045,13.845,0,27.7c.01,1.08-.32,1.33-1.36,1.33-5.6-.05-11.19.01-16.79-.05-1.18-.01-1.6.29-1.58,1.53.06,5.64,0,11.27.05,16.91.01,1-.29,1.28-1.28,1.27q-13.965-.045-27.94,0c-1.02,0-1.26-.32-1.26-1.29.04-5.72,0-11.43.04-17.15.01-1.01-.3-1.28-1.29-1.27-5.72.04-11.43,0-17.15.04-.98.01-1.3-.25-1.29-1.26q.06-13.785,0-27.58c-.01-1.19.4-1.48,1.52-1.47,5.6.05,11.19,0,16.79.04,1.07.01,1.44-.23,1.42-1.38-.06-5.68,0-11.35-.05-17.03-.01-1.09.33-1.33,1.36-1.32C78.24,133.22,82.88,133.19,87.52,133.19Z" fill="#b2b2b2"/>
  </g>
</svg>
