<svg xmlns="http://www.w3.org/2000/svg" width="97.63" height="97.872" viewBox="0 0 97.63 97.872">
  <g id="pyro-blue" transform="translate(-36.68 -111.72)">
    <path id="Caminho_108" data-name="Caminho 108" d="M87.49,98.72a48.85,48.85,0,1,1-48.81,48.97A49,49,0,0,1,87.49,98.72ZM77.31,192.93a.2.2,0,0,0,.04.08c.01.01.04.01.07.01a.333.333,0,0,1-.11-.09,44.631,44.631,0,0,1-3.86-3.67,27.461,27.461,0,0,1-4.77-7,45.461,45.461,0,0,1-3.77-13.69c-.32-2.69-.91-5.36-.72-8.09.27-3.98.82-7.95.6-11.95-.18-3.32-1.03-6.35-3.84-8.5-.23-.18-.69-.31-.56-.78.06-.03.1-.07.13-.06,4.3.92,9.1,3.94,9.35,9.15a2.693,2.693,0,0,0,2.02,2.26c.87.03.84-.82.99-1.29,1.8-5.65,4.52-10.92,6.79-16.37,1.62-3.9,3.22-7.88,2.96-12.24-.32-5.47-2.24-10.14-7.05-13.26-.19-.12-.41-.26-.3-.6a1.557,1.557,0,0,1,.57.01,31.255,31.255,0,0,1,8.79,4.8,66.851,66.851,0,0,1,10.57,10.5,29.5,29.5,0,0,1,4.25,7.69,36.528,36.528,0,0,1,1.91,8.24,44.449,44.449,0,0,1-.53,11.92c-.39,2.8-.64,5.43.54,8.07,1.16,2.6,3.74,3.18,5.98,1.43a15.631,15.631,0,0,0,5.71-9.08c.64-2.71.68-5.52,1.49-8.2a12.665,12.665,0,0,1,3.09-5.46c.06.24.11.33.09.38-1.64,3.22-1.34,6.56-.5,9.88.68,2.68,1.82,5.25,2.25,8,.83,5.29-.17,10.42-1.77,15.41a50.64,50.64,0,0,1-7.28,14.5,28.857,28.857,0,0,1-4.07,4.72,1.391,1.391,0,0,0,1.44-.18,48.447,48.447,0,0,0,11.83-8.28,46.184,46.184,0,0,0,11.04-16.48,44.979,44.979,0,0,0,1.94-28.15,46.057,46.057,0,0,0-15.53-24.72c-10.54-8.73-22.75-11.97-36.17-10.2A44.81,44.81,0,0,0,52.4,117.16a46.566,46.566,0,0,0-7.91,12.76,46.018,46.018,0,0,0-3.16,23,44.389,44.389,0,0,0,7.09,19.89A46.709,46.709,0,0,0,69.7,190.62,26.633,26.633,0,0,0,77.31,192.93Z" transform="translate(-2 13)" fill="#4695c8"/>
    <path id="Caminho_109" data-name="Caminho 109" d="M73.68,209.51a.764.764,0,0,0,.11.08c-.02,0-.06.01-.07-.01s-.02-.05-.04-.07Z" fill="#4695c8"/>
  </g>
</svg>
