<svg xmlns="http://www.w3.org/2000/svg" width="97.65" height="97.71" viewBox="0 0 97.65 97.71">
  <g id="scout" transform="translate(-38.67 -119.6)">
    <path id="Caminho_101" data-name="Caminho 101" d="M38.67,168.44a48.825,48.825,0,1,1,48.78,48.87A48.864,48.864,0,0,1,38.67,168.44Zm48.67-46.22c-24.96-.48-45.54,20.31-46.33,44.55-.89,27.29,21.14,47.5,44.85,48.19a46.606,46.606,0,0,0,48.05-45.03C134.69,142.65,112.11,121.53,87.34,122.22Z" fill="#b2b2b2"/>
    <path id="Caminho_102" data-name="Caminho 102" d="M105.09,155.41c-.22-.08-.26-.11-.29-.1q-9.195,2.445-18.39,4.89a.952.952,0,0,0-.81,1.1c.04,1.48.02,2.96.01,4.44,0,.29.12.77-.32.76s-.32-.48-.32-.77c-.01-3.72-.12-7.44.05-11.15.07-1.45.3-3.05,2.12-3.8,7.64-3.15,15.25-6.4,22.88-9.58a2.052,2.052,0,0,0,1.27-1.3,34.592,34.592,0,0,0,1.45-5.55c.05-.33.29-.76-.08-.98-.29-.17-.58.18-.84.34-2.38,1.53-4.72,3.21-7.21,4.49a82.825,82.825,0,0,1-10.77,4.64,37.736,37.736,0,0,0-13.01,7.21c-.29.26-.63.48-.56.98.32,2.16.47,4.35.94,6.48a44.433,44.433,0,0,1,.91,8.9,9.5,9.5,0,0,1,.08,2.96c-.22.74.04.79.7.69,2.8-.4,5.6-.74,8.41-1.11q4.62-.6,9.24-1.24c.24-.03.62.01.67-.35.04-.26-.23-.4-.4-.55a10.182,10.182,0,0,0-4.13-2.34c-.92-.26-1.85-.49-2.77-.76-.29-.08-.71-.1-.71-.5,0-.37.37-.52.66-.61a23.045,23.045,0,0,1,2.29-.67C100.08,161.09,102.72,158.52,105.09,155.41Zm-3.03,14.45c-1.49.22-2.71.41-3.93.57-5.08.66-10.16,1.44-15.26,1.91a4.291,4.291,0,0,0-3.96,3.02c-1.17,2.79-1.97,5.74-3.43,8.41-.42.77.26.85.73,1.01,3.58,1.22,7.18,2.42,10.75,3.68a1.335,1.335,0,0,0,1.81-.51,32.976,32.976,0,0,1,10.36-9.05q2.5-1.41,4.99-2.85c.4-.23.95-.46.7-1.08-.53-1.29-.53-2.72-1.2-3.98C103.2,170.19,102.91,169.42,102.06,169.86ZM64.63,203.3a19.935,19.935,0,0,0,4.61-.52c3.77-.81,7.1-2.62,10.45-4.4a5.6,5.6,0,0,0,1.51-.96,27.061,27.061,0,0,0,4.86-5.9c.36-.66.26-.84-.4-1.06-3.45-1.15-6.9-2.3-10.32-3.52-.88-.32-1.13.01-1.32.75a34.2,34.2,0,0,1-3.14,7.37,6.244,6.244,0,0,1-4.2,3.6,8.623,8.623,0,0,0-4.17,2.51,1.386,1.386,0,0,0-.49,1.49c.21.59.73.67,1.28.65C63.75,203.28,64.19,203.3,64.63,203.3Zm45.31-56.68a4.571,4.571,0,0,0-.71.15c-7.37,3.19-14.71,6.41-22.11,9.53a2.107,2.107,0,0,0-1.53,2.5c.08.77.25.94,1.02.73,6.16-1.68,12.33-3.32,18.49-4.98a1.8,1.8,0,0,0,1.05-.53A21.993,21.993,0,0,0,109.94,146.62Zm.53-5.02c-7.55,3.19-14.9,6.29-22.24,9.4-2,.85-2.68,2.03-2.62,4.23.02.78.24,1.02.99.68,1.34-.61,2.71-1.18,4.06-1.76q9.285-4,18.57-8.03a2.065,2.065,0,0,0,1.22-2.81A2.567,2.567,0,0,1,110.47,141.6Z" fill="#b2b2b2"/>
    <path id="Caminho_103" data-name="Caminho 103" d="M105.09,155.41c-2.37,3.11-5,5.68-8.93,6.51a18.2,18.2,0,0,0-2.29.67c-.29.1-.66.25-.66.61,0,.4.42.42.71.5.92.26,1.85.5,2.77.76a10.182,10.182,0,0,1,4.13,2.34c.17.16.44.29.4.55-.06.36-.43.32-.67.35q-4.62.63-9.24,1.24c-2.8.37-5.61.71-8.41,1.11-.66.09-.92.05-.7-.69a9.2,9.2,0,0,0-.08-2.96,43.714,43.714,0,0,0-.91-8.9c-.47-2.12-.63-4.32-.94-6.48-.07-.5.26-.72.56-.98a37.736,37.736,0,0,1,13.01-7.21,82.239,82.239,0,0,0,10.77-4.64,82.233,82.233,0,0,0,7.21-4.49c.26-.17.55-.51.84-.34.38.22.14.65.08.98a34.32,34.32,0,0,1-1.45,5.55,2.007,2.007,0,0,1-1.27,1.3c-7.63,3.19-15.23,6.44-22.88,9.58-1.82.75-2.05,2.35-2.12,3.8-.18,3.71-.06,7.43-.05,11.15,0,.3-.11.77.32.77s.32-.47.32-.76c.01-1.48.03-2.96-.01-4.44a.939.939,0,0,1,.81-1.1q9.195-2.43,18.39-4.89A2.193,2.193,0,0,0,105.09,155.41Z" fill="#b2b2b2"/>
    <path id="Caminho_104" data-name="Caminho 104" d="M102.06,169.86c.85-.44,1.14.33,1.56,1.13.67,1.26.68,2.69,1.2,3.98.25.62-.3.84-.7,1.08q-2.49,1.44-4.99,2.85a32.975,32.975,0,0,0-10.36,9.05,1.326,1.326,0,0,1-1.81.51c-3.57-1.26-7.17-2.45-10.75-3.68-.47-.16-1.15-.24-.73-1.01,1.46-2.67,2.26-5.62,3.43-8.41a4.268,4.268,0,0,1,3.96-3.02c5.1-.47,10.18-1.24,15.26-1.91C99.35,170.27,100.57,170.08,102.06,169.86Z" fill="#b2b2b2"/>
    <path id="Caminho_105" data-name="Caminho 105" d="M64.63,203.3c-.44,0-.88-.01-1.32,0-.55.02-1.07-.07-1.28-.65a1.353,1.353,0,0,1,.49-1.49,8.778,8.778,0,0,1,4.17-2.51,6.265,6.265,0,0,0,4.2-3.6,34.488,34.488,0,0,0,3.14-7.37c.18-.73.43-1.06,1.32-.75,3.42,1.23,6.87,2.38,10.32,3.52.66.22.76.4.4,1.06a27.3,27.3,0,0,1-4.86,5.9,5.857,5.857,0,0,1-1.51.96c-3.35,1.78-6.68,3.59-10.45,4.4A20.094,20.094,0,0,1,64.63,203.3Z" fill="#b2b2b2"/>
    <path id="Caminho_106" data-name="Caminho 106" d="M109.94,146.62a21.993,21.993,0,0,1-3.79,7.4,1.742,1.742,0,0,1-1.05.53c-6.16,1.66-12.33,3.3-18.49,4.98-.77.21-.94.05-1.02-.73a2.1,2.1,0,0,1,1.53-2.5c7.39-3.12,14.74-6.35,22.11-9.53A4.571,4.571,0,0,1,109.94,146.62Z" fill="#b2b2b2"/>
    <path id="Caminho_107" data-name="Caminho 107" d="M110.47,141.6a2.567,2.567,0,0,0-.02,1.71,2.061,2.061,0,0,1-1.22,2.81q-9.27,4.035-18.57,8.03c-1.36.59-2.72,1.15-4.06,1.76-.76.34-.97.11-.99-.68-.07-2.2.62-3.39,2.62-4.23C95.57,147.89,102.92,144.79,110.47,141.6Z" fill="#b2b2b2"/>
  </g>
</svg>
