<svg xmlns="http://www.w3.org/2000/svg" width="97.72" height="97.7" viewBox="0 0 97.72 97.7">
  <g id="sniper" transform="translate(-38.64 -112.43)">
    <path id="Caminho_98" data-name="Caminho 98" d="M136.36,161.31a48.86,48.86,0,1,1-48.79-48.88A48.773,48.773,0,0,1,136.36,161.31Zm-48.92-46.3c-25.26-.54-45.57,20.74-46.44,44.42-.99,26.8,20.67,47.76,44.91,48.37a46.386,46.386,0,0,0,47.99-44.97C134.72,134.96,111.85,114.43,87.44,115.01Z" fill="#b2b2b2"/>
    <path id="Caminho_99" data-name="Caminho 99" d="M87.49,124.08a36.47,36.47,0,1,1-36.51,37.74A36.383,36.383,0,0,1,87.49,124.08Zm-1.42,59.97c0-2.8-.01-5.59.01-8.39.01-.73-.11-1.1-1-1.24a14.935,14.935,0,0,1-12.51-12.61c-.1-.74-.39-1.03-1.14-1.02-5.27.02-10.55.03-15.82,0-.81,0-1.03.32-1.01,1.07a29.065,29.065,0,0,0,.48,4.27,32.128,32.128,0,0,0,10.98,19.38,33.239,33.239,0,0,0,18.93,7.87c.88.09,1.1-.23,1.09-1.05C86.05,189.56,86.07,186.8,86.07,184.05Zm2.76-.23v7.19c0,2.29,0,2.28,2.2,2.14.24-.02.48,0,.72-.04a32.59,32.59,0,0,0,21.98-13.24,31.784,31.784,0,0,0,6.18-17.83c.04-.95-.31-1.26-1.24-1.26-5.07.03-10.15.02-15.23,0-.77,0-1.04.31-1.15,1.03a14.914,14.914,0,0,1-12.51,12.61c-.79.12-.98.39-.97,1.12C88.85,178.31,88.83,181.06,88.83,183.82ZM63.99,158.19c2.48,0,4.95-.01,7.43.01.63,0,1.04-.11,1.15-.87A14.781,14.781,0,0,1,84.8,144.61c1.16-.21,1.29-.64,1.29-1.6-.03-4.47-.01-8.95-.02-13.43,0-1.56-.01-1.59-1.51-1.45a32.213,32.213,0,0,0-19.55,8.69,32.733,32.733,0,0,0-10.13,19.35c-.21,1.3.4,1.99,1.79,2.01C59.12,158.2,61.56,158.18,63.99,158.19Zm47.11,0c2.12,0,4.23.02,6.35,0,3.08-.03,2.53.37,2.1-2.47a31.863,31.863,0,0,0-11.68-20.4,32.339,32.339,0,0,0-17.83-7.19c-.82-.08-1.24.06-1.23,1.05.05,4.75.03,9.51.01,14.26,0,.74.21.99.99,1.11a14.9,14.9,0,0,1,12.49,12.62c.12.81.47,1.06,1.26,1.04C106.07,158.16,108.59,158.19,111.1,158.19Zm-24.91,9.02c0-1.76-.02-3.51.01-5.27.01-.78-.17-1.17-1.06-1.16-3.55.04-7.1.03-10.65,0-.8-.01-1.02.25-.95,1.06.53,5.47,6.17,11.17,11.6,11.7.79.08,1.08-.14,1.06-.95C86.16,170.8,86.19,169,86.19,167.21Zm2.64-.04c0,1.72.06,3.43-.02,5.15-.05,1.12.31,1.37,1.38,1.14a14.143,14.143,0,0,0,11.13-11.61c.14-.82-.12-1.06-.91-1.06-3.51.03-7.02.04-10.53-.01-.87-.01-1.08.32-1.06,1.12C88.86,163.66,88.83,165.41,88.83,167.17Zm-8.95-8.99c1.76,0,3.51-.03,5.27.01.79.02,1.05-.28,1.05-1.05-.02-3.47-.03-6.95,0-10.42.01-.84-.29-.99-1.08-.87A14.249,14.249,0,0,0,73.6,157.1c-.13.77.05,1.1.89,1.08C76.29,158.15,78.09,158.18,79.88,158.18Zm15.14,0c1.8,0,3.6-.01,5.4.01.69.01,1.03-.09.83-.95a16.487,16.487,0,0,0-.84-2.86,13.854,13.854,0,0,0-10.2-8.41c-.63-.14-1.39-.4-1.38.79.03,3.52.02,7.04,0,10.55,0,.69.26.9.92.89C91.5,158.17,93.26,158.18,95.02,158.18Z" fill="#b2b2b2"/>
  </g>
</svg>
