<svg xmlns="http://www.w3.org/2000/svg" width="97.774" height="97.901" viewBox="0 0 97.774 97.901">
  <g id="soldier" transform="translate(-38.56 -100.089)">
    <path id="Caminho_93" data-name="Caminho 93" d="M136.33,149.09c.3,26.55-21.7,49.02-49.08,48.9a48.951,48.951,0,1,1,.58-97.9C114.71,100.26,136.66,122.42,136.33,149.09ZM86.32,102.7a37.9,37.9,0,0,0-12.81,2.06A45.967,45.967,0,0,0,47.7,124.99a46.4,46.4,0,0,0-4.97,36.87,47.331,47.331,0,0,0,10.35,18.55c.72.79,1.16.84,1.85,0,2.69-3.26,5.43-6.48,8.15-9.72q2.31-2.745,4.61-5.5c.38-.46.68-.66,1.25-.14,1.77,1.61,3.6,3.15,5.4,4.73.72.63,1.8,1.2,2,1.97.21.84-1.01,1.48-1.51,2.28-.13.2-.3.37-.45.56-3.57,4.44-7.13,8.88-10.74,13.29-.54.66-.45.88.26,1.28a46.542,46.542,0,0,0,57.12-7.99,44.859,44.859,0,0,0,9.35-14.36,48.048,48.048,0,0,0,3.55-17.35,42.912,42.912,0,0,0-.73-8.08,45.35,45.35,0,0,0-16.87-28.64C107.94,106.03,98.25,102.62,86.32,102.7Z" fill="#b2b2b2"/>
    <path id="Caminho_94" data-name="Caminho 94" d="M103.63,119.76c.17,0,.25-.01.33,0,2.16.16,2.17.16,2.57-2.04a1.788,1.788,0,0,1,.52-1.18c1.18-.94,2.39-1.86,3.6-2.78.43-.33.77-.21,1.17.13q3.555,3.015,7.14,5.98a.835.835,0,0,1,.25,1.22c-.64,1.19-1.24,2.41-1.83,3.63a1.72,1.72,0,0,1-1.24.84,2,2,0,0,0-1.65,2.38,7.878,7.878,0,0,1-1.4,4.95c-3.64,6.19-7.2,12.42-10.75,18.66-.43.76-.66.84-1.35.24-4.5-3.87-9.05-7.69-13.57-11.52-1.09-.93-2.16-1.89-3.27-2.8-.65-.53-.15-.83.18-1.13,2.06-1.89,4.11-3.77,6.19-5.63,2.64-2.36,5.31-4.7,7.97-7.05,1.31-1.16,2.64-2.32,3.93-3.5A1.3,1.3,0,0,1,103.63,119.76Z" fill="#b2b2b2"/>
    <path id="Caminho_95" data-name="Caminho 95" d="M100.51,155a1.092,1.092,0,0,1-.07.25c-1.1,1.26-2.17,2.54-3.32,3.76-.37.4-.74-.07-1.02-.31q-2.49-2.145-4.94-4.33c-4.31-3.85-8.6-7.72-12.93-11.55-.53-.47-.55-.8-.05-1.25.92-.82,1.84-1.65,2.73-2.5.33-.32.58-.28.92,0q5.325,4.515,10.68,9.01,3.48,2.925,6.95,5.83A3.311,3.311,0,0,1,100.51,155Z" fill="#b2b2b2"/>
    <path id="Caminho_96" data-name="Caminho 96" d="M85.32,163.74c.06.61-.21.69-.39.82-1.91,1.37-3.85,2.71-5.75,4.1a1,1,0,0,1-1.47-.1c-2.27-2-4.57-3.97-6.87-5.95a1.05,1.05,0,0,1-.34-1.46c1.1-2.04,2.15-4.11,3.23-6.15.33-.62.71-.94,1.39-.32,3.16,2.87,6.34,5.71,9.52,8.56A6.268,6.268,0,0,0,85.32,163.74Z" fill="#b2b2b2"/>
    <path id="Caminho_97" data-name="Caminho 97" d="M92.25,159.09c-1.69.66-3.51.94-5.26,1.44-.34.1-.59-.15-.84-.36q-4.08-3.5-8.18-6.98a1.86,1.86,0,0,1-.78-2.05,17.226,17.226,0,0,0,.12-3.22c.01-.27-.08-.6.25-.73.26-.1.44.11.62.26q6.825,5.5,13.65,11.03A.717.717,0,0,1,92.25,159.09Z" fill="#b2b2b2"/>
  </g>
</svg>
