<svg xmlns="http://www.w3.org/2000/svg" width="97.7" height="97.593" viewBox="0 0 97.7 97.593">
  <g id="spy-blue" transform="translate(-38.63 -114.477)">
    <path id="Caminho_91" data-name="Caminho 91" d="M87.52,114.48c26.98-.26,48.89,22.32,48.81,48.83a48.85,48.85,0,1,1-97.7-.21C38.65,136.75,60.48,114.18,87.52,114.48Zm-.02,2.43c-25.22-.51-46.39,20.65-46.55,46.01a46.491,46.491,0,1,0,92.98.52C134,137.29,112.55,116.53,87.5,116.91Z" fill="#4695c8"/>
    <path id="Caminho_92" data-name="Caminho 92" d="M105.93,199.39c-.72.1-.98-.16-1.05-.69-.1-.71-.26-1.41-.36-2.12-.46-3.3-2.7-5.63-4.55-8.14-3.52-4.78-7.16-9.48-10.7-14.25a1.6,1.6,0,0,0-2.43-.55c-.86.5-1.79.89-2.67,1.36-.51.27-.8.21-.97-.38-.13-.46-.35-.89-.52-1.34-.89-2.22-.89-2.22,1.16-3.4,1.45-.83,1.5-.99.3-2.12-1.74-1.64-3.61-3.15-5.29-4.85a64.6,64.6,0,0,1-8.84-11.56c-3.69-5.93-4.95-12.55-5.87-19.29a19.756,19.756,0,0,1-.02-2.88c0-.27-.07-.62.27-.72.31-.09.47.2.66.42,3.85,4.31,7.65,8.67,11.59,12.9a93.63,93.63,0,0,0,10.52,9.58c1.72,1.36,2.13,3.4,3.05,5.17.97,1.88,1.78,3.84,2.72,5.73.67,1.36.84,1.33,2.14.55,2.18-1.31,1.67-1.6,3.34.49a25.846,25.846,0,0,0,2.17,2.39c.59.59.45.92-.25,1.21-.26.1-.5.25-.75.37-1.88.94-1.84.9-.46,2.52,3.99,4.66,8.05,9.27,11.85,14.08a69.312,69.312,0,0,1,5.97,8.95c.5.88.58,1.4-.51,1.94-2.14,1.06-4.2,2.29-6.29,3.46C108.77,198.99,107.22,199.03,105.93,199.39Z" fill="#4695c8"/>
  </g>
</svg>
